#N canvas 287 210 353 345 16;
#X obj 35 222 output~;
#X obj 225 32 loadbang;
#X msg 225 61 \; pd dsp 1;
#N canvas 237 301 1096 533 snare 0;
#X obj 34 86 noise~;
#X obj 34 222 *~;
#X obj 87 175 line~;
#X obj 226 216 *~;
#X obj 251 180 line~;
#X obj 226 85 triangle~ 110;
#X msg 251 121 1 5;
#X obj 318 119 del 5;
#X obj 386 216 *~;
#X obj 411 180 line~;
#X obj 478 119 del 5;
#X msg 478 148 0 10;
#X msg 411 121 0.8 5;
#X obj 546 217 *~;
#X obj 571 180 line~;
#X obj 638 119 del 5;
#X msg 638 148 0 10;
#X obj 386 85 triangle~ 275;
#X obj 546 85 osc~ 495;
#X msg 571 120 0.6 5;
#X obj 706 216 *~;
#X obj 731 180 line~;
#X obj 41 26 inlet;
#X obj 124 368 outlet~;
#X obj 126 328 *~ 0.3;
#X obj 798 119 del 2;
#X msg 798 147 0 10;
#X msg 154 143 0 80;
#X msg 318 147 0 40;
#X obj 706 85 square~ 4000;
#X msg 731 120 0.3 2;
#X obj 862 72 noise~;
#X obj 870 215 *~;
#X obj 931 198 line~;
#X msg 931 139 1 10;
#X msg 998 166 0 20;
#X obj 998 137 del 10;
#X obj 154 114 del 10;
#X obj 862 101 bp~ 8000 50;
#X msg 87 116 1 10;
#X connect 0 0 1 0;
#X connect 1 0 24 0;
#X connect 2 0 1 1;
#X connect 3 0 24 0;
#X connect 4 0 3 1;
#X connect 5 0 3 0;
#X connect 6 0 4 0;
#X connect 7 0 28 0;
#X connect 8 0 24 0;
#X connect 9 0 8 1;
#X connect 10 0 11 0;
#X connect 11 0 9 0;
#X connect 12 0 9 0;
#X connect 13 0 24 0;
#X connect 14 0 13 1;
#X connect 15 0 16 0;
#X connect 16 0 14 0;
#X connect 17 0 8 0;
#X connect 18 0 13 0;
#X connect 19 0 14 0;
#X connect 20 0 24 0;
#X connect 21 0 20 1;
#X connect 22 0 39 0;
#X connect 22 0 6 0;
#X connect 22 0 7 0;
#X connect 22 0 12 0;
#X connect 22 0 10 0;
#X connect 22 0 19 0;
#X connect 22 0 15 0;
#X connect 22 0 30 0;
#X connect 22 0 25 0;
#X connect 22 0 34 0;
#X connect 22 0 36 0;
#X connect 22 0 37 0;
#X connect 24 0 23 0;
#X connect 25 0 26 0;
#X connect 26 0 21 0;
#X connect 27 0 2 0;
#X connect 28 0 4 0;
#X connect 29 0 20 0;
#X connect 30 0 21 0;
#X connect 31 0 38 0;
#X connect 32 0 24 0;
#X connect 33 0 32 1;
#X connect 34 0 33 0;
#X connect 35 0 33 0;
#X connect 36 0 35 0;
#X connect 37 0 27 0;
#X connect 38 0 32 0;
#X connect 39 0 2 0;
#X restore 116 79 pd snare;
#X obj 116 17 bng 40 250 50 0 empty empty empty 17 7 0 10 -261682 -1
-1;
#N canvas 916 349 759 489 kick 0;
#X obj 85 44 inlet;
#X obj 33 92 noise~;
#X obj 60 235 *~;
#X obj 113 188 line~;
#X obj 402 229 *~;
#X obj 427 193 line~;
#X msg 427 134 1 5;
#X obj 494 132 del 5;
#X obj 88 355 outlet~;
#X msg 494 159 0 60;
#X obj 180 126 del 5;
#X obj 562 228 *~;
#X obj 587 192 line~;
#X obj 654 131 del 5;
#X obj 402 98 osc~ 50;
#X obj 252 229 *~;
#X obj 277 193 line~;
#X msg 277 134 1 5;
#X obj 344 132 del 5;
#X obj 252 98 osc~ 30;
#X obj 88 326 *~ 0.5;
#X msg 587 133 0.1 5;
#X msg 344 159 0 100;
#X obj 562 97 square~ 40;
#X msg 654 158 0 40;
#X msg 179 156 0 60;
#X obj 33 121 lop~ 200;
#X msg 114 127 0.4 5;
#X connect 0 0 27 0;
#X connect 0 0 6 0;
#X connect 0 0 7 0;
#X connect 0 0 10 0;
#X connect 0 0 21 0;
#X connect 0 0 13 0;
#X connect 0 0 17 0;
#X connect 0 0 18 0;
#X connect 1 0 26 0;
#X connect 2 0 20 0;
#X connect 3 0 2 1;
#X connect 4 0 20 0;
#X connect 5 0 4 1;
#X connect 6 0 5 0;
#X connect 7 0 9 0;
#X connect 9 0 5 0;
#X connect 10 0 25 0;
#X connect 11 0 20 0;
#X connect 12 0 11 1;
#X connect 13 0 24 0;
#X connect 14 0 4 0;
#X connect 15 0 20 0;
#X connect 16 0 15 1;
#X connect 17 0 16 0;
#X connect 18 0 22 0;
#X connect 19 0 15 0;
#X connect 20 0 8 0;
#X connect 21 0 12 0;
#X connect 22 0 16 0;
#X connect 23 0 11 0;
#X connect 24 0 12 0;
#X connect 25 0 3 0;
#X connect 26 0 2 0;
#X connect 27 0 3 0;
#X restore 36 79 pd kick;
#X obj 36 17 bng 40 250 50 0 empty empty empty 17 7 0 10 -261234 -1
-1;
#X obj 35 136 +~;
#X obj 55 179 rev2~ 100 75 3000 60;
#X connect 1 0 2 0;
#X connect 3 0 7 1;
#X connect 4 0 3 0;
#X connect 5 0 7 0;
#X connect 6 0 5 0;
#X connect 7 0 0 0;
#X connect 7 0 8 0;
#X connect 8 0 0 0;
