#N canvas -8 -8 1920 997 16;
#X declare -lib Gem;
#X obj 801 787 output~;
#X obj 1795 20 loadbang;
#X msg 1795 59 \; pd dsp 1;
#X obj 519 585 bng 40 250 50 0 empty empty V 14 20 1 20 -4032 -1 -1
;
#X obj 816 588 bng 40 250 50 0 empty empty Space 2 18 1 12 -261234
-1 -1;
#X obj 801 697 +~;
#X obj 821 740 rev2~ 100 75 3000 60;
#N canvas 684 261 292 405 keydown 0;
#X obj 25 47 key;
#X obj 25 105 select 1;
#X obj 35 134 bng 15 250 50 0 empty empty empty 17 7 0 10 -262144 -1
-1;
#X obj 129 76 keyup;
#X obj 129 134 select 1;
#X obj 139 163 bng 15 250 50 0 empty empty empty 17 7 0 10 -262144
-1 -1;
#X obj 63 259 == 1;
#X obj 73 317 bng 15 250 50 0 empty empty empty 17 7 0 10 -262144 -1
-1;
#X obj 63 230 spigot;
#X obj 63 288 select 1;
#X msg 129 183 1;
#X msg 25 183 0;
#X msg 71 183 1;
#X obj 25 154 t b f;
#X obj 63 337 outlet;
#X obj 25 76 ==;
#X obj 129 105 ==;
#X obj 149 17 inlet;
#X obj 182 168 loadbang;
#X msg 182 197 1;
#X connect 0 0 15 0;
#X connect 1 0 2 0;
#X connect 1 0 13 0;
#X connect 3 0 16 0;
#X connect 4 0 5 0;
#X connect 4 0 10 0;
#X connect 6 0 9 0;
#X connect 8 0 6 0;
#X connect 9 0 7 0;
#X connect 9 0 14 0;
#X connect 10 0 8 1;
#X connect 11 0 8 1;
#X connect 12 0 8 0;
#X connect 13 0 11 0;
#X connect 13 1 12 0;
#X connect 15 0 1 0;
#X connect 16 0 4 0;
#X connect 17 0 15 1;
#X connect 17 0 16 1;
#X connect 18 0 19 0;
#X connect 19 0 8 1;
#X restore 817 560 pd keydown;
#N canvas 684 261 292 405 keydown 0;
#X obj 25 47 key;
#X obj 25 105 select 1;
#X obj 35 134 bng 15 250 50 0 empty empty empty 17 7 0 10 -262144 -1
-1;
#X obj 129 76 keyup;
#X obj 129 134 select 1;
#X obj 139 163 bng 15 250 50 0 empty empty empty 17 7 0 10 -262144
-1 -1;
#X obj 63 259 == 1;
#X obj 73 317 bng 15 250 50 0 empty empty empty 17 7 0 10 -262144 -1
-1;
#X obj 63 230 spigot;
#X obj 63 288 select 1;
#X msg 129 183 1;
#X msg 25 183 0;
#X msg 71 183 1;
#X obj 25 154 t b f;
#X obj 63 337 outlet;
#X obj 25 76 ==;
#X obj 129 105 ==;
#X obj 149 17 inlet;
#X obj 182 168 loadbang;
#X msg 182 197 1;
#X connect 0 0 15 0;
#X connect 1 0 2 0;
#X connect 1 0 13 0;
#X connect 3 0 16 0;
#X connect 4 0 5 0;
#X connect 4 0 10 0;
#X connect 6 0 9 0;
#X connect 8 0 6 0;
#X connect 9 0 7 0;
#X connect 9 0 14 0;
#X connect 10 0 8 1;
#X connect 11 0 8 1;
#X connect 12 0 8 0;
#X connect 13 0 11 0;
#X connect 13 1 12 0;
#X connect 15 0 1 0;
#X connect 16 0 4 0;
#X connect 17 0 15 1;
#X connect 17 0 16 1;
#X connect 18 0 19 0;
#X connect 19 0 8 1;
#X restore 519 552 pd keydown;
#X obj 646 582 bng 40 250 50 0 empty empty N 14 20 1 20 -4032 -1 -1
;
#N canvas 684 261 292 405 keydown 0;
#X obj 25 47 key;
#X obj 25 105 select 1;
#X obj 35 134 bng 15 250 50 0 empty empty empty 17 7 0 10 -262144 -1
-1;
#X obj 129 76 keyup;
#X obj 129 134 select 1;
#X obj 139 163 bng 15 250 50 0 empty empty empty 17 7 0 10 -262144
-1 -1;
#X obj 63 259 == 1;
#X obj 73 317 bng 15 250 50 0 empty empty empty 17 7 0 10 -262144 -1
-1;
#X obj 63 230 spigot;
#X obj 63 288 select 1;
#X msg 129 183 1;
#X msg 25 183 0;
#X msg 71 183 1;
#X obj 25 154 t b f;
#X obj 63 337 outlet;
#X obj 25 76 ==;
#X obj 129 105 ==;
#X obj 149 17 inlet;
#X obj 182 168 loadbang;
#X msg 182 197 1;
#X connect 0 0 15 0;
#X connect 1 0 2 0;
#X connect 1 0 13 0;
#X connect 3 0 16 0;
#X connect 4 0 5 0;
#X connect 4 0 10 0;
#X connect 6 0 9 0;
#X connect 8 0 6 0;
#X connect 9 0 7 0;
#X connect 9 0 14 0;
#X connect 10 0 8 1;
#X connect 11 0 8 1;
#X connect 12 0 8 0;
#X connect 13 0 11 0;
#X connect 13 1 12 0;
#X connect 15 0 1 0;
#X connect 16 0 4 0;
#X connect 17 0 15 1;
#X connect 17 0 16 1;
#X connect 18 0 19 0;
#X connect 19 0 8 1;
#X restore 646 553 pd keydown;
#N canvas -8 -8 1920 997 keydown 0;
#X obj 25 47 key;
#X obj 25 105 select 1;
#X obj 35 134 bng 15 250 50 0 empty empty empty 17 7 0 10 -262144 -1
-1;
#X obj 129 76 keyup;
#X obj 129 134 select 1;
#X obj 139 163 bng 15 250 50 0 empty empty empty 17 7 0 10 -262144
-1 -1;
#X obj 63 259 == 1;
#X obj 73 317 bng 15 250 50 0 empty empty empty 17 7 0 10 -262144 -1
-1;
#X obj 63 230 spigot;
#X obj 63 288 select 1;
#X msg 129 183 1;
#X msg 25 183 0;
#X msg 71 183 1;
#X obj 25 154 t b f;
#X obj 63 337 outlet;
#X obj 25 76 ==;
#X obj 129 105 ==;
#X obj 149 17 inlet;
#X obj 182 168 loadbang;
#X msg 182 197 1;
#X connect 0 0 15 0;
#X connect 1 0 2 0;
#X connect 1 0 13 0;
#X connect 3 0 16 0;
#X connect 4 0 5 0;
#X connect 4 0 10 0;
#X connect 6 0 9 0;
#X connect 8 0 6 0;
#X connect 9 0 7 0;
#X connect 9 0 14 0;
#X connect 10 0 8 1;
#X connect 11 0 8 1;
#X connect 12 0 8 0;
#X connect 13 0 11 0;
#X connect 13 1 12 0;
#X connect 15 0 1 0;
#X connect 16 0 4 0;
#X connect 17 0 15 1;
#X connect 17 0 16 1;
#X connect 18 0 19 0;
#X connect 19 0 8 1;
#X restore 1004 565 pd keydown;
#X obj 1116 598 bng 40 250 50 0 empty empty U 14 20 1 20 -86853 -1
-262144;
#N canvas 684 261 292 405 keydown 0;
#X obj 25 47 key;
#X obj 25 105 select 1;
#X obj 35 134 bng 15 250 50 0 empty empty empty 17 7 0 10 -262144 -1
-1;
#X obj 129 76 keyup;
#X obj 129 134 select 1;
#X obj 139 163 bng 15 250 50 0 empty empty empty 17 7 0 10 -262144
-1 -1;
#X obj 63 259 == 1;
#X obj 73 317 bng 15 250 50 0 empty empty empty 17 7 0 10 -262144 -1
-1;
#X obj 63 230 spigot;
#X obj 63 288 select 1;
#X msg 129 183 1;
#X msg 25 183 0;
#X msg 71 183 1;
#X obj 25 154 t b f;
#X obj 63 337 outlet;
#X obj 25 76 ==;
#X obj 129 105 ==;
#X obj 149 17 inlet;
#X obj 182 168 loadbang;
#X msg 182 197 1;
#X connect 0 0 15 0;
#X connect 1 0 2 0;
#X connect 1 0 13 0;
#X connect 3 0 16 0;
#X connect 4 0 5 0;
#X connect 4 0 10 0;
#X connect 6 0 9 0;
#X connect 8 0 6 0;
#X connect 9 0 7 0;
#X connect 9 0 14 0;
#X connect 10 0 8 1;
#X connect 11 0 8 1;
#X connect 12 0 8 0;
#X connect 13 0 11 0;
#X connect 13 1 12 0;
#X connect 15 0 1 0;
#X connect 16 0 4 0;
#X connect 17 0 15 1;
#X connect 17 0 16 1;
#X connect 18 0 19 0;
#X connect 19 0 8 1;
#X restore 1118 568 pd keydown;
#X obj 1003 597 bng 40 250 50 0 empty empty Y 13 20 1 20 -86853 -1
-262144;
#N canvas 684 261 292 405 keydown 0;
#X obj 25 47 key;
#X obj 25 105 select 1;
#X obj 35 134 bng 15 250 50 0 empty empty empty 17 7 0 10 -262144 -1
-1;
#X obj 129 76 keyup;
#X obj 129 134 select 1;
#X obj 139 163 bng 15 250 50 0 empty empty empty 17 7 0 10 -262144
-1 -1;
#X obj 63 259 == 1;
#X obj 73 317 bng 15 250 50 0 empty empty empty 17 7 0 10 -262144 -1
-1;
#X obj 63 230 spigot;
#X obj 63 288 select 1;
#X msg 129 183 1;
#X msg 25 183 0;
#X msg 71 183 1;
#X obj 25 154 t b f;
#X obj 63 337 outlet;
#X obj 25 76 ==;
#X obj 129 105 ==;
#X obj 149 17 inlet;
#X obj 182 168 loadbang;
#X msg 182 197 1;
#X connect 0 0 15 0;
#X connect 1 0 2 0;
#X connect 1 0 13 0;
#X connect 3 0 16 0;
#X connect 4 0 5 0;
#X connect 4 0 10 0;
#X connect 6 0 9 0;
#X connect 8 0 6 0;
#X connect 9 0 7 0;
#X connect 9 0 14 0;
#X connect 10 0 8 1;
#X connect 11 0 8 1;
#X connect 12 0 8 0;
#X connect 13 0 11 0;
#X connect 13 1 12 0;
#X connect 15 0 1 0;
#X connect 16 0 4 0;
#X connect 17 0 15 1;
#X connect 17 0 16 1;
#X connect 18 0 19 0;
#X connect 19 0 8 1;
#X restore 774 339 pd keydown;
#X obj 885 377 bng 40 250 50 0 empty empty H 14 20 0 20 -260097 -1
-1;
#N canvas -8 -8 1920 997 keydown 0;
#X obj 25 47 key;
#X obj 25 105 select 1;
#X obj 35 134 bng 15 250 50 0 empty empty empty 17 7 0 10 -262144 -1
-1;
#X obj 129 76 keyup;
#X obj 129 134 select 1;
#X obj 139 163 bng 15 250 50 0 empty empty empty 17 7 0 10 -262144
-1 -1;
#X obj 63 259 == 1;
#X obj 73 317 bng 15 250 50 0 empty empty empty 17 7 0 10 -262144 -1
-1;
#X obj 63 230 spigot;
#X obj 63 288 select 1;
#X msg 129 183 1;
#X msg 25 183 0;
#X msg 71 183 1;
#X obj 25 154 t b f;
#X obj 63 337 outlet;
#X obj 25 76 ==;
#X obj 129 105 ==;
#X obj 149 17 inlet;
#X obj 182 168 loadbang;
#X msg 182 197 1;
#X text 319 118 keydown object: Used to send the
exact moment a key is pressed down and released.;
#X connect 0 0 15 0;
#X connect 1 0 2 0;
#X connect 1 0 13 0;
#X connect 3 0 16 0;
#X connect 4 0 5 0;
#X connect 4 0 10 0;
#X connect 6 0 9 0;
#X connect 8 0 6 0;
#X connect 9 0 7 0;
#X connect 9 0 14 0;
#X connect 10 0 8 1;
#X connect 11 0 8 1;
#X connect 12 0 8 0;
#X connect 13 0 11 0;
#X connect 13 1 12 0;
#X connect 15 0 1 0;
#X connect 16 0 4 0;
#X connect 17 0 15 1;
#X connect 17 0 16 1;
#X connect 18 0 19 0;
#X connect 19 0 8 1;
#X restore 887 347 pd keydown;
#X obj 772 369 bng 40 250 50 0 empty empty G 13 20 1 20 -260097 -1
-1;
#X obj 499 381 bng 40 250 50 0 empty empty D 14 20 1 20 -257985 -1
-1;
#N canvas 684 261 292 405 keydown 0;
#X obj 25 47 key;
#X obj 25 105 select 1;
#X obj 35 134 bng 15 250 50 0 empty empty empty 17 7 0 10 -262144 -1
-1;
#X obj 129 76 keyup;
#X obj 129 134 select 1;
#X obj 139 163 bng 15 250 50 0 empty empty empty 17 7 0 10 -262144
-1 -1;
#X obj 63 259 == 1;
#X obj 73 317 bng 15 250 50 0 empty empty empty 17 7 0 10 -262144 -1
-1;
#X obj 63 230 spigot;
#X obj 63 288 select 1;
#X msg 129 183 1;
#X msg 25 183 0;
#X msg 71 183 1;
#X obj 25 154 t b f;
#X obj 63 337 outlet;
#X obj 25 76 ==;
#X obj 129 105 ==;
#X obj 149 17 inlet;
#X obj 182 168 loadbang;
#X msg 182 197 1;
#X connect 0 0 15 0;
#X connect 1 0 2 0;
#X connect 1 0 13 0;
#X connect 3 0 16 0;
#X connect 4 0 5 0;
#X connect 4 0 10 0;
#X connect 6 0 9 0;
#X connect 8 0 6 0;
#X connect 9 0 7 0;
#X connect 9 0 14 0;
#X connect 10 0 8 1;
#X connect 11 0 8 1;
#X connect 12 0 8 0;
#X connect 13 0 11 0;
#X connect 13 1 12 0;
#X connect 15 0 1 0;
#X connect 16 0 4 0;
#X connect 17 0 15 1;
#X connect 17 0 16 1;
#X connect 18 0 19 0;
#X connect 19 0 8 1;
#X restore 499 348 pd keydown;
#X obj 626 378 bng 40 250 50 0 empty empty K 14 20 1 20 -257985 -1
-1;
#N canvas 684 261 292 405 keydown 0;
#X obj 25 47 key;
#X obj 25 105 select 1;
#X obj 35 134 bng 15 250 50 0 empty empty empty 17 7 0 10 -262144 -1
-1;
#X obj 129 76 keyup;
#X obj 129 134 select 1;
#X obj 139 163 bng 15 250 50 0 empty empty empty 17 7 0 10 -262144
-1 -1;
#X obj 63 259 == 1;
#X obj 73 317 bng 15 250 50 0 empty empty empty 17 7 0 10 -262144 -1
-1;
#X obj 63 230 spigot;
#X obj 63 288 select 1;
#X msg 129 183 1;
#X msg 25 183 0;
#X msg 71 183 1;
#X obj 25 154 t b f;
#X obj 63 337 outlet;
#X obj 25 76 ==;
#X obj 129 105 ==;
#X obj 149 17 inlet;
#X obj 182 168 loadbang;
#X msg 182 197 1;
#X connect 0 0 15 0;
#X connect 1 0 2 0;
#X connect 1 0 13 0;
#X connect 3 0 16 0;
#X connect 4 0 5 0;
#X connect 4 0 10 0;
#X connect 6 0 9 0;
#X connect 8 0 6 0;
#X connect 9 0 7 0;
#X connect 9 0 14 0;
#X connect 10 0 8 1;
#X connect 11 0 8 1;
#X connect 12 0 8 0;
#X connect 13 0 11 0;
#X connect 13 1 12 0;
#X connect 15 0 1 0;
#X connect 16 0 4 0;
#X connect 17 0 15 1;
#X connect 17 0 16 1;
#X connect 18 0 19 0;
#X connect 19 0 8 1;
#X restore 626 349 pd keydown;
#X obj 1007 362 bng 40 250 50 0 empty empty I 18 20 1 20 -4034 -1 -1
;
#N canvas 684 261 292 405 keydown 0;
#X obj 25 47 key;
#X obj 25 105 select 1;
#X obj 35 134 bng 15 250 50 0 empty empty empty 17 7 0 10 -262144 -1
-1;
#X obj 129 76 keyup;
#X obj 129 134 select 1;
#X obj 139 163 bng 15 250 50 0 empty empty empty 17 7 0 10 -262144
-1 -1;
#X obj 63 259 == 1;
#X obj 73 317 bng 15 250 50 0 empty empty empty 17 7 0 10 -262144 -1
-1;
#X obj 63 230 spigot;
#X obj 63 288 select 1;
#X msg 129 183 1;
#X msg 25 183 0;
#X msg 71 183 1;
#X obj 25 154 t b f;
#X obj 63 337 outlet;
#X obj 25 76 ==;
#X obj 129 105 ==;
#X obj 149 17 inlet;
#X obj 182 168 loadbang;
#X msg 182 197 1;
#X connect 0 0 15 0;
#X connect 1 0 2 0;
#X connect 1 0 13 0;
#X connect 3 0 16 0;
#X connect 4 0 5 0;
#X connect 4 0 10 0;
#X connect 6 0 9 0;
#X connect 8 0 6 0;
#X connect 9 0 7 0;
#X connect 9 0 14 0;
#X connect 10 0 8 1;
#X connect 11 0 8 1;
#X connect 12 0 8 0;
#X connect 13 0 11 0;
#X connect 13 1 12 0;
#X connect 15 0 1 0;
#X connect 16 0 4 0;
#X connect 17 0 15 1;
#X connect 17 0 16 1;
#X connect 18 0 19 0;
#X connect 19 0 8 1;
#X restore 1008 334 pd keydown;
#X obj 543 253 loadbang;
#X obj 798 267 loadbang;
#X obj 1008 271 loadbang;
#X obj 562 477 loadbang;
#X obj 817 496 loadbang;
#X obj 1037 496 loadbang;
#X msg 501 317 100;
#X msg 625 319 107;
#X msg 1004 533 121;
#X msg 1119 535 117;
#X msg 816 528 32;
#X msg 1008 305 105;
#X msg 521 522 118;
#X msg 645 524 110;
#X msg 772 309 103;
#X msg 889 311 104;
#X obj 772 420 hitomdrum;
#X obj 1007 407 ridecymbal;
#X obj 1003 645 floortomdrum;
#X obj 816 635 kickdrum;
#X obj 499 429 hithathit;
#X obj 518 633 snaredrum;
#X obj 62 272 gemwin;
#X msg 75 240 destroy;
#X msg 62 209 create \, 1;
#X obj 5 8 declare -lib Gem;
#X obj 693 1875 gemhead;
#X obj 432 2101 separator;
#X obj 431 2314 rotateXYZ 0 0 0;
#X obj 428 2453 separator;
#X floatatom 466 2223 5 0 0 0 - - -;
#X obj 659 2112 separator;
#X obj 885 2445 separator;
#X obj 885 2099 separator;
#X obj 693 2054 rotateXYZ;
#X floatatom 544 1989 5 0 0 0 - - -;
#X obj 659 2141 translateXYZ 0 0 0;
#X obj 431 2372 pix_texture2;
#X obj 431 2401 cube 0.6;
#X obj 457 428 s d;
#X obj 600 429 s k;
#X obj 473 630 s v;
#X obj 627 631 s n;
#X obj 879 422 s h;
#X obj 730 421 s g;
#X obj 966 409 s i;
#X obj 957 644 s y;
#X obj 1138 648 s u;
#X obj 420 2156 r d;
#X obj 434 2189 f;
#X floatatom 575 2222 5 0 0 0 - - -;
#X obj 543 2188 f;
#X obj 529 2158 r k;
#X obj 427 2670 rotateXYZ 0 0 0;
#X floatatom 462 2578 5 0 0 0 - - -;
#X obj 427 2728 pix_texture2;
#X obj 427 2757 cube 0.6;
#X obj 430 2544 f;
#X floatatom 565 2579 5 0 0 0 - - -;
#X obj 533 2545 f;
#X obj 659 2323 rotateXYZ 0 0 0;
#X floatatom 694 2236 5 0 0 0 - - -;
#X obj 659 2381 pix_texture2;
#X obj 659 2410 cube 0.6;
#X obj 662 2202 f;
#X floatatom 797 2237 5 0 0 0 - - -;
#X obj 765 2203 f;
#X obj 886 2301 rotateXYZ 0 0 0;
#X floatatom 920 2220 5 0 0 0 - - -;
#X obj 886 2359 pix_texture2;
#X obj 886 2388 cube 0.6;
#X obj 889 2188 f;
#X obj 886 2655 rotateXYZ 0 0 0;
#X floatatom 921 2566 5 0 0 0 - - -;
#X obj 886 2713 pix_texture2;
#X obj 886 2742 cube 0.6;
#X obj 889 2539 f;
#X floatatom 1024 2571 5 0 0 0 - - -;
#X obj 992 2544 f;
#X obj 518 1959 f;
#X obj 416 2511 r v;
#X obj 519 2512 r n;
#X obj 648 2169 r g;
#X obj 751 2170 r h;
#X obj 887 2159 r i;
#X obj 875 2506 r y;
#X obj 978 2507 r u;
#X obj 707 1916 r space;
#X obj 738 635 s space;
#X obj 712 2203 + 7;
#X obj 593 2189 + 7;
#X obj 484 2190 + 7;
#X obj 815 2204 + 7;
#X obj 939 2189 + 7;
#X obj 1042 2545 + 7;
#X obj 939 2540 + 7;
#X obj 583 2546 + 7;
#X obj 480 2545 + 7;
#X obj 432 2130 translateXYZ -2.5 0 0;
#X obj 885 2128 translateXYZ 0 2.5 0;
#X obj 885 2474 translateXYZ 0 -2.5 0;
#X obj 428 2482 translateXYZ 2.5 0 0;
#X obj 1671 17 loadbang;
#X obj 1671 128 s z;
#X obj 483 2158 r z;
#X obj 700 2169 r z;
#X obj 939 2159 r z;
#X obj 923 2505 r z;
#X obj 467 2511 r z;
#X obj 568 1960 + \$1;
#X obj 640 1991 + 7;
#X floatatom 802 1996 5 0 0 0 - - -;
#X obj 750 1961 f;
#X obj 800 1962 + \$1;
#X obj 872 1993 + 7;
#X obj 816 1916 r z;
#X obj 640 1962 random 5;
#N canvas 684 261 292 405 keydown 0;
#X obj 25 47 key;
#X obj 25 105 select 1;
#X obj 35 134 bng 15 250 50 0 empty empty empty 17 7 0 10 -262144 -1
-1;
#X obj 129 76 keyup;
#X obj 129 134 select 1;
#X obj 139 163 bng 15 250 50 0 empty empty empty 17 7 0 10 -262144
-1 -1;
#X obj 63 259 == 1;
#X obj 73 317 bng 15 250 50 0 empty empty empty 17 7 0 10 -262144 -1
-1;
#X obj 63 230 spigot;
#X obj 63 288 select 1;
#X msg 129 183 1;
#X msg 25 183 0;
#X msg 71 183 1;
#X obj 25 154 t b f;
#X obj 63 337 outlet;
#X obj 25 76 ==;
#X obj 129 105 ==;
#X obj 149 17 inlet;
#X obj 182 168 loadbang;
#X msg 182 197 1;
#X connect 0 0 15 0;
#X connect 1 0 2 0;
#X connect 1 0 13 0;
#X connect 3 0 16 0;
#X connect 4 0 5 0;
#X connect 4 0 10 0;
#X connect 6 0 9 0;
#X connect 8 0 6 0;
#X connect 9 0 7 0;
#X connect 9 0 14 0;
#X connect 10 0 8 1;
#X connect 11 0 8 1;
#X connect 12 0 8 0;
#X connect 13 0 11 0;
#X connect 13 1 12 0;
#X connect 15 0 1 0;
#X connect 16 0 4 0;
#X connect 17 0 15 1;
#X connect 17 0 16 1;
#X connect 18 0 19 0;
#X connect 19 0 8 1;
#X restore 1671 74 pd keydown;
#X msg 1671 46 114;
#X obj 659 2352 pix_image totoro.jpg;
#X obj 886 2684 pix_image calcifer.jpg;
#X obj 427 2699 pix_image princess.jpg;
#X obj 431 2343 pix_image noname.jpg;
#X obj 886 2330 pix_image ponyo.jpg;
#X floatatom 1671 102 5 0 0 0 - - -;
#X obj 821 2054 line;
#X obj 595 2051 line;
#X msg 595 2022 \$1 100;
#X msg 821 2025 \$1 100;
#X obj 872 1964 random 5;
#X obj 650 2462 gemhead;
#X obj 650 2549 translateXYZ 0 0 -10;
#X obj 650 2578 square 15;
#X obj 650 2491 pix_image house.jpg;
#X obj 650 2520 pix_texture2;
#X obj 956 2275 line;
#X msg 956 2246 \$1 50;
#X obj 944 2625 line;
#X msg 944 2596 \$1 50;
#X obj 1033 2626 line;
#X msg 1033 2597 \$1 50;
#X obj 485 2636 line;
#X msg 485 2607 \$1 50;
#X obj 574 2637 line;
#X msg 574 2608 \$1 50;
#X obj 492 2281 line;
#X msg 492 2252 \$1 50;
#X obj 581 2282 line;
#X msg 581 2253 \$1 50;
#X obj 718 2293 line;
#X msg 718 2264 \$1 50;
#X obj 807 2294 line;
#X msg 807 2265 \$1 50;
#X text 1321 47 r is the positional reset button;
#X text 555 207 follow the letters in the colors for different sounds
;
#X text 520 1849 dont look/touch at this \, its confusing lmao;
#X text 633 877 click on/off to operate the stereo \, use the slider
to turn it up/down;
#X text 12 114 click create to make the meme appear \, and destroy
to make it dis- appear;
#X connect 1 0 2 0;
#X connect 3 0 46 0;
#X connect 3 0 66 0;
#X connect 4 0 44 0;
#X connect 4 0 113 0;
#X connect 5 0 0 0;
#X connect 5 0 6 0;
#X connect 6 0 0 0;
#X connect 7 0 4 0;
#X connect 8 0 3 0;
#X connect 9 0 46 0;
#X connect 9 0 67 0;
#X connect 10 0 9 0;
#X connect 11 0 14 0;
#X connect 12 0 43 0;
#X connect 12 0 72 0;
#X connect 13 0 12 0;
#X connect 14 0 43 0;
#X connect 14 0 71 0;
#X connect 15 0 18 0;
#X connect 16 0 41 0;
#X connect 16 0 68 0;
#X connect 17 0 16 0;
#X connect 18 0 41 0;
#X connect 18 0 69 0;
#X connect 19 0 45 0;
#X connect 19 0 64 0;
#X connect 20 0 19 0;
#X connect 21 0 45 0;
#X connect 21 0 65 0;
#X connect 22 0 21 0;
#X connect 23 0 42 0;
#X connect 23 0 70 0;
#X connect 24 0 23 0;
#X connect 25 0 31 0;
#X connect 25 0 32 0;
#X connect 26 0 39 0;
#X connect 26 0 40 0;
#X connect 27 0 36 0;
#X connect 28 0 37 0;
#X connect 28 0 38 0;
#X connect 29 0 35 0;
#X connect 30 0 33 0;
#X connect 30 0 34 0;
#X connect 31 0 20 0;
#X connect 32 0 22 0;
#X connect 33 0 11 0;
#X connect 34 0 13 0;
#X connect 35 0 7 0;
#X connect 36 0 24 0;
#X connect 37 0 8 0;
#X connect 38 0 10 0;
#X connect 39 0 15 0;
#X connect 40 0 17 0;
#X connect 41 0 5 0;
#X connect 42 0 5 1;
#X connect 43 0 5 1;
#X connect 44 0 5 0;
#X connect 45 0 5 0;
#X connect 46 0 5 1;
#X connect 48 0 47 0;
#X connect 49 0 47 0;
#X connect 51 0 59 0;
#X connect 52 0 123 0;
#X connect 53 0 147 0;
#X connect 54 0 126 0;
#X connect 56 0 61 0;
#X connect 57 0 125 0;
#X connect 58 0 124 0;
#X connect 59 0 56 0;
#X connect 59 0 58 0;
#X connect 59 0 52 0;
#X connect 59 0 54 0;
#X connect 59 0 57 0;
#X connect 61 0 85 0;
#X connect 62 0 63 0;
#X connect 73 0 74 0;
#X connect 74 0 116 0;
#X connect 74 0 55 0;
#X connect 74 0 171 0;
#X connect 76 0 115 0;
#X connect 76 0 75 0;
#X connect 76 0 173 0;
#X connect 77 0 76 0;
#X connect 78 0 146 0;
#X connect 80 0 81 0;
#X connect 82 0 79 0;
#X connect 82 0 122 0;
#X connect 82 0 167 0;
#X connect 84 0 83 0;
#X connect 84 0 121 0;
#X connect 84 0 169 0;
#X connect 85 0 144 0;
#X connect 87 0 88 0;
#X connect 89 0 86 0;
#X connect 89 0 114 0;
#X connect 89 0 175 0;
#X connect 91 0 90 0;
#X connect 91 0 117 0;
#X connect 91 0 177 0;
#X connect 92 0 148 0;
#X connect 94 0 95 0;
#X connect 96 0 118 0;
#X connect 96 0 161 0;
#X connect 96 0 93 0;
#X connect 97 0 145 0;
#X connect 99 0 100 0;
#X connect 101 0 98 0;
#X connect 101 0 120 0;
#X connect 101 0 163 0;
#X connect 103 0 102 0;
#X connect 103 0 119 0;
#X connect 103 0 165 0;
#X connect 104 0 60 0;
#X connect 104 0 134 0;
#X connect 104 0 152 0;
#X connect 105 0 82 0;
#X connect 106 0 84 0;
#X connect 107 0 89 0;
#X connect 108 0 91 0;
#X connect 109 0 96 0;
#X connect 110 0 101 0;
#X connect 111 0 103 0;
#X connect 112 0 104 0;
#X connect 112 0 137 0;
#X connect 112 0 141 0;
#X connect 112 0 154 0;
#X connect 114 0 89 1;
#X connect 115 0 76 1;
#X connect 116 0 74 1;
#X connect 117 0 91 1;
#X connect 118 0 96 1;
#X connect 119 0 103 1;
#X connect 120 0 101 1;
#X connect 121 0 84 1;
#X connect 122 0 82 1;
#X connect 123 0 53 0;
#X connect 124 0 92 0;
#X connect 125 0 97 0;
#X connect 126 0 78 0;
#X connect 127 0 143 0;
#X connect 129 0 116 0;
#X connect 129 0 115 0;
#X connect 129 0 53 1;
#X connect 129 0 53 2;
#X connect 129 0 53 3;
#X connect 130 0 114 0;
#X connect 130 0 117 0;
#X connect 130 0 85 1;
#X connect 130 0 85 2;
#X connect 130 0 85 3;
#X connect 131 0 118 0;
#X connect 131 0 92 1;
#X connect 131 0 92 2;
#X connect 131 0 92 3;
#X connect 132 0 120 0;
#X connect 132 0 119 0;
#X connect 132 0 97 1;
#X connect 132 0 97 2;
#X connect 132 0 97 3;
#X connect 133 0 122 0;
#X connect 133 0 121 0;
#X connect 133 0 78 1;
#X connect 133 0 78 2;
#X connect 133 0 78 3;
#X connect 134 0 104 1;
#X connect 135 0 134 1;
#X connect 137 0 136 0;
#X connect 137 0 138 0;
#X connect 137 0 153 0;
#X connect 138 0 137 1;
#X connect 139 0 138 1;
#X connect 140 0 138 0;
#X connect 140 0 134 0;
#X connect 140 0 59 2;
#X connect 140 0 59 1;
#X connect 141 0 135 0;
#X connect 142 0 149 0;
#X connect 143 0 142 0;
#X connect 144 0 87 0;
#X connect 145 0 99 0;
#X connect 146 0 80 0;
#X connect 147 0 62 0;
#X connect 148 0 94 0;
#X connect 149 0 128 0;
#X connect 150 0 59 2;
#X connect 151 0 59 1;
#X connect 152 0 151 0;
#X connect 153 0 150 0;
#X connect 154 0 139 0;
#X connect 155 0 158 0;
#X connect 156 0 157 0;
#X connect 158 0 159 0;
#X connect 159 0 156 0;
#X connect 160 0 92 2;
#X connect 161 0 160 0;
#X connect 162 0 97 2;
#X connect 163 0 162 0;
#X connect 164 0 97 3;
#X connect 165 0 164 0;
#X connect 166 0 78 2;
#X connect 167 0 166 0;
#X connect 168 0 78 3;
#X connect 169 0 168 0;
#X connect 170 0 53 2;
#X connect 171 0 170 0;
#X connect 172 0 53 3;
#X connect 173 0 172 0;
#X connect 174 0 85 2;
#X connect 175 0 174 0;
#X connect 176 0 85 3;
#X connect 177 0 176 0;
