#N canvas 953 0 958 988 10;
#X obj 20 435 noise~;
#X obj 75 543 line~;
#X obj 556 636 line~;
#X obj 74 380 square~;
#X obj 167 381 square~;
#X obj 254 381 square~;
#X obj 320 381 square~;
#X obj 402 381 square~;
#X obj 252 341 * 4.16;
#X obj 318 341 * 5.43;
#X obj 400 341 * 6.79;
#X obj 471 381 square~;
#X obj 2 353 square~;
#X obj 59 204 loadbang;
#X obj 288 206 bng 50 250 50 0 empty empty empty 17 7 0 10 -262144
-1 -1;
#N canvas 684 261 292 405 keydown 0;
#X obj 25 47 key;
#X obj 25 105 select 1;
#X obj 35 134 bng 15 250 50 0 empty empty empty 17 7 0 10 -262144 -1
-1;
#X obj 129 76 keyup;
#X obj 129 134 select 1;
#X obj 139 163 bng 15 250 50 0 empty empty empty 17 7 0 10 -262144
-1 -1;
#X obj 63 259 == 1;
#X obj 73 317 bng 15 250 50 0 empty empty empty 17 7 0 10 -262144 -1
-1;
#X obj 63 230 spigot;
#X obj 63 288 select 1;
#X msg 129 183 1;
#X msg 25 183 0;
#X msg 71 183 1;
#X obj 25 154 t b f;
#X obj 63 337 outlet;
#X obj 25 76 ==;
#X obj 129 105 ==;
#X obj 149 17 inlet;
#X obj 182 168 loadbang;
#X msg 182 197 1;
#X connect 0 0 15 0;
#X connect 1 0 2 0;
#X connect 1 0 13 0;
#X connect 3 0 16 0;
#X connect 4 0 5 0;
#X connect 4 0 10 0;
#X connect 6 0 9 0;
#X connect 8 0 6 0;
#X connect 9 0 7 0;
#X connect 9 0 14 0;
#X connect 10 0 8 1;
#X connect 11 0 8 1;
#X connect 12 0 8 0;
#X connect 13 0 11 0;
#X connect 13 1 12 0;
#X connect 15 0 1 0;
#X connect 16 0 4 0;
#X connect 17 0 15 1;
#X connect 17 0 16 1;
#X connect 18 0 19 0;
#X connect 19 0 8 1;
#X restore 288 160 pd keydown;
#X obj 288 68 loadbang;
#X obj 73 344 * 2.35;
#X obj 165 341 * 3.57;
#X obj 19 582 *~;
#X obj 243 588 *~;
#X obj 543 378 square~;
#X obj 242 799 output~;
#X msg 289 114 105;
#X obj 631 605 del 40;
#X obj 288 286 s playcrash;
#X obj 59 263 s pitchc;
#X obj 3 308 r pitchc;
#X obj 72 308 r pitchc;
#X obj 165 309 r pitchc;
#X obj 252 309 r pitchc;
#X obj 318 309 r pitchc;
#X obj 400 309 r pitchc;
#X obj 469 309 r pitchc;
#X obj 541 306 r pitchc;
#X obj 84 460 r playcrash;
#X obj 557 570 r playcrash;
#X msg 142 541 0 15;
#X obj 142 512 del 5;
#X obj 469 341 * 8.71;
#X obj 541 338 * 10.35;
#X obj 20 488 hip~ 1500;
#X obj 420 189 r pitchc;
#X obj 513 190 r pitchc;
#X obj 600 190 r pitchc;
#X obj 666 190 r pitchc;
#X obj 748 190 r pitchc;
#X obj 817 190 r pitchc;
#X obj 889 187 r pitchc;
#X obj 421 225 * 1.56;
#X obj 513 222 * 4.37;
#X obj 600 222 * 7.65;
#X obj 666 222 6.86;
#X obj 748 222 * 3.37;
#X obj 817 222 * 2.47;
#X obj 889 219 * 5.19;
#X obj 422 261 noise~;
#X obj 515 262 noise~;
#X obj 602 262 noise~;
#X obj 243 688 *~ 0.1;
#X obj 238 532 bp~ 5000 3000;
#X obj 372 532 hip~ 7000;
#X msg 75 512 0.5 5;
#X msg 556 607 0.7 5;
#X obj 244 639 lop~ 300;
#X msg 631 634 0 2000;
#X obj 668 262 noise~;
#X obj 750 262 noise~;
#X obj 819 262 osc~;
#X obj 891 259 osc~;
#X msg 60 233 197;
#X connect 0 0 41 0;
#X connect 1 0 19 1;
#X connect 2 0 20 1;
#X connect 3 0 60 0;
#X connect 3 0 61 0;
#X connect 4 0 60 0;
#X connect 4 0 61 0;
#X connect 5 0 60 0;
#X connect 5 0 61 0;
#X connect 6 0 60 0;
#X connect 6 0 61 0;
#X connect 7 0 60 0;
#X connect 7 0 61 0;
#X connect 8 0 5 0;
#X connect 9 0 6 0;
#X connect 10 0 7 0;
#X connect 11 0 60 0;
#X connect 11 0 61 0;
#X connect 12 0 60 0;
#X connect 13 0 70 0;
#X connect 14 0 25 0;
#X connect 15 0 14 0;
#X connect 16 0 23 0;
#X connect 17 0 3 0;
#X connect 18 0 4 0;
#X connect 19 0 59 0;
#X connect 20 0 64 0;
#X connect 21 0 60 0;
#X connect 21 0 61 0;
#X connect 23 0 15 0;
#X connect 24 0 65 0;
#X connect 27 0 12 0;
#X connect 28 0 17 0;
#X connect 29 0 18 0;
#X connect 30 0 8 0;
#X connect 31 0 9 0;
#X connect 32 0 10 0;
#X connect 33 0 39 0;
#X connect 34 0 40 0;
#X connect 35 0 62 0;
#X connect 35 0 38 0;
#X connect 36 0 63 0;
#X connect 36 0 24 0;
#X connect 37 0 1 0;
#X connect 38 0 37 0;
#X connect 39 0 11 0;
#X connect 40 0 21 0;
#X connect 41 0 19 0;
#X connect 42 0 49 0;
#X connect 43 0 50 0;
#X connect 44 0 51 0;
#X connect 45 0 52 0;
#X connect 46 0 53 0;
#X connect 47 0 54 0;
#X connect 48 0 55 0;
#X connect 49 0 56 0;
#X connect 50 0 57 0;
#X connect 51 0 58 0;
#X connect 52 0 66 0;
#X connect 53 0 67 0;
#X connect 54 0 68 0;
#X connect 55 0 69 0;
#X connect 56 0 60 0;
#X connect 56 0 61 0;
#X connect 57 0 60 0;
#X connect 57 0 61 0;
#X connect 58 0 60 0;
#X connect 58 0 61 0;
#X connect 59 0 22 0;
#X connect 60 0 20 0;
#X connect 61 0 20 0;
#X connect 62 0 1 0;
#X connect 63 0 2 0;
#X connect 64 0 59 0;
#X connect 65 0 2 0;
#X connect 66 0 60 0;
#X connect 66 0 61 0;
#X connect 67 0 60 0;
#X connect 67 0 61 0;
#X connect 68 0 60 0;
#X connect 68 0 61 0;
#X connect 69 0 60 0;
#X connect 69 0 61 0;
#X connect 70 0 26 0;
