#N canvas -8 -8 1920 997 16;
#X obj 823 756 output~;
#X obj 32 60 loadbang;
#X msg 32 99 \; pd dsp 1;
#X obj 517 441 bng 40 250 50 0 empty empty V 14 20 1 20 -4032 -1 -1
;
#X obj 909 497 bng 40 250 50 0 empty empty Space 2 18 1 12 -261234
-1 -1;
#X obj 823 666 +~;
#X obj 843 709 rev2~ 100 75 3000 60;
#N canvas 684 261 292 405 keydown 0;
#X obj 25 47 key;
#X obj 25 105 select 1;
#X obj 35 134 bng 15 250 50 0 empty empty empty 17 7 0 10 -262144 -1
-1;
#X obj 129 76 keyup;
#X obj 129 134 select 1;
#X obj 139 163 bng 15 250 50 0 empty empty empty 17 7 0 10 -262144
-1 -1;
#X obj 63 259 == 1;
#X obj 73 317 bng 15 250 50 0 empty empty empty 17 7 0 10 -262144 -1
-1;
#X obj 63 230 spigot;
#X obj 63 288 select 1;
#X msg 129 183 1;
#X msg 25 183 0;
#X msg 71 183 1;
#X obj 25 154 t b f;
#X obj 63 337 outlet;
#X obj 25 76 ==;
#X obj 129 105 ==;
#X obj 149 17 inlet;
#X obj 182 168 loadbang;
#X msg 182 197 1;
#X connect 0 0 15 0;
#X connect 1 0 2 0;
#X connect 1 0 13 0;
#X connect 3 0 16 0;
#X connect 4 0 5 0;
#X connect 4 0 10 0;
#X connect 6 0 9 0;
#X connect 8 0 6 0;
#X connect 9 0 7 0;
#X connect 9 0 14 0;
#X connect 10 0 8 1;
#X connect 11 0 8 1;
#X connect 12 0 8 0;
#X connect 13 0 11 0;
#X connect 13 1 12 0;
#X connect 15 0 1 0;
#X connect 16 0 4 0;
#X connect 17 0 15 1;
#X connect 17 0 16 1;
#X connect 18 0 19 0;
#X connect 19 0 8 1;
#X restore 910 469 pd keydown;
#N canvas 684 261 292 405 keydown 0;
#X obj 25 47 key;
#X obj 25 105 select 1;
#X obj 35 134 bng 15 250 50 0 empty empty empty 17 7 0 10 -262144 -1
-1;
#X obj 129 76 keyup;
#X obj 129 134 select 1;
#X obj 139 163 bng 15 250 50 0 empty empty empty 17 7 0 10 -262144
-1 -1;
#X obj 63 259 == 1;
#X obj 73 317 bng 15 250 50 0 empty empty empty 17 7 0 10 -262144 -1
-1;
#X obj 63 230 spigot;
#X obj 63 288 select 1;
#X msg 129 183 1;
#X msg 25 183 0;
#X msg 71 183 1;
#X obj 25 154 t b f;
#X obj 63 337 outlet;
#X obj 25 76 ==;
#X obj 129 105 ==;
#X obj 149 17 inlet;
#X obj 182 168 loadbang;
#X msg 182 197 1;
#X connect 0 0 15 0;
#X connect 1 0 2 0;
#X connect 1 0 13 0;
#X connect 3 0 16 0;
#X connect 4 0 5 0;
#X connect 4 0 10 0;
#X connect 6 0 9 0;
#X connect 8 0 6 0;
#X connect 9 0 7 0;
#X connect 9 0 14 0;
#X connect 10 0 8 1;
#X connect 11 0 8 1;
#X connect 12 0 8 0;
#X connect 13 0 11 0;
#X connect 13 1 12 0;
#X connect 15 0 1 0;
#X connect 16 0 4 0;
#X connect 17 0 15 1;
#X connect 17 0 16 1;
#X connect 18 0 19 0;
#X connect 19 0 8 1;
#X restore 517 408 pd keydown;
#X obj 644 438 bng 40 250 50 0 empty empty N 14 20 1 20 -4032 -1 -1
;
#N canvas 684 261 292 405 keydown 0;
#X obj 25 47 key;
#X obj 25 105 select 1;
#X obj 35 134 bng 15 250 50 0 empty empty empty 17 7 0 10 -262144 -1
-1;
#X obj 129 76 keyup;
#X obj 129 134 select 1;
#X obj 139 163 bng 15 250 50 0 empty empty empty 17 7 0 10 -262144
-1 -1;
#X obj 63 259 == 1;
#X obj 73 317 bng 15 250 50 0 empty empty empty 17 7 0 10 -262144 -1
-1;
#X obj 63 230 spigot;
#X obj 63 288 select 1;
#X msg 129 183 1;
#X msg 25 183 0;
#X msg 71 183 1;
#X obj 25 154 t b f;
#X obj 63 337 outlet;
#X obj 25 76 ==;
#X obj 129 105 ==;
#X obj 149 17 inlet;
#X obj 182 168 loadbang;
#X msg 182 197 1;
#X connect 0 0 15 0;
#X connect 1 0 2 0;
#X connect 1 0 13 0;
#X connect 3 0 16 0;
#X connect 4 0 5 0;
#X connect 4 0 10 0;
#X connect 6 0 9 0;
#X connect 8 0 6 0;
#X connect 9 0 7 0;
#X connect 9 0 14 0;
#X connect 10 0 8 1;
#X connect 11 0 8 1;
#X connect 12 0 8 0;
#X connect 13 0 11 0;
#X connect 13 1 12 0;
#X connect 15 0 1 0;
#X connect 16 0 4 0;
#X connect 17 0 15 1;
#X connect 17 0 16 1;
#X connect 18 0 19 0;
#X connect 19 0 8 1;
#X restore 644 409 pd keydown;
#N canvas -8 -8 1920 997 keydown 0;
#X obj 25 47 key;
#X obj 25 105 select 1;
#X obj 35 134 bng 15 250 50 0 empty empty empty 17 7 0 10 -262144 -1
-1;
#X obj 129 76 keyup;
#X obj 129 134 select 1;
#X obj 139 163 bng 15 250 50 0 empty empty empty 17 7 0 10 -262144
-1 -1;
#X obj 63 259 == 1;
#X obj 73 317 bng 15 250 50 0 empty empty empty 17 7 0 10 -262144 -1
-1;
#X obj 63 230 spigot;
#X obj 63 288 select 1;
#X msg 129 183 1;
#X msg 25 183 0;
#X msg 71 183 1;
#X obj 25 154 t b f;
#X obj 63 337 outlet;
#X obj 25 76 ==;
#X obj 129 105 ==;
#X obj 149 17 inlet;
#X obj 182 168 loadbang;
#X msg 182 197 1;
#X connect 0 0 15 0;
#X connect 1 0 2 0;
#X connect 1 0 13 0;
#X connect 3 0 16 0;
#X connect 4 0 5 0;
#X connect 4 0 10 0;
#X connect 6 0 9 0;
#X connect 8 0 6 0;
#X connect 9 0 7 0;
#X connect 9 0 14 0;
#X connect 10 0 8 1;
#X connect 11 0 8 1;
#X connect 12 0 8 0;
#X connect 13 0 11 0;
#X connect 13 1 12 0;
#X connect 15 0 1 0;
#X connect 16 0 4 0;
#X connect 17 0 15 1;
#X connect 17 0 16 1;
#X connect 18 0 19 0;
#X connect 19 0 8 1;
#X restore 1172 579 pd keydown;
#X obj 1284 612 bng 40 250 50 0 empty empty U 14 20 1 20 -86853 -1
-262144;
#N canvas 684 261 292 405 keydown 0;
#X obj 25 47 key;
#X obj 25 105 select 1;
#X obj 35 134 bng 15 250 50 0 empty empty empty 17 7 0 10 -262144 -1
-1;
#X obj 129 76 keyup;
#X obj 129 134 select 1;
#X obj 139 163 bng 15 250 50 0 empty empty empty 17 7 0 10 -262144
-1 -1;
#X obj 63 259 == 1;
#X obj 73 317 bng 15 250 50 0 empty empty empty 17 7 0 10 -262144 -1
-1;
#X obj 63 230 spigot;
#X obj 63 288 select 1;
#X msg 129 183 1;
#X msg 25 183 0;
#X msg 71 183 1;
#X obj 25 154 t b f;
#X obj 63 337 outlet;
#X obj 25 76 ==;
#X obj 129 105 ==;
#X obj 149 17 inlet;
#X obj 182 168 loadbang;
#X msg 182 197 1;
#X connect 0 0 15 0;
#X connect 1 0 2 0;
#X connect 1 0 13 0;
#X connect 3 0 16 0;
#X connect 4 0 5 0;
#X connect 4 0 10 0;
#X connect 6 0 9 0;
#X connect 8 0 6 0;
#X connect 9 0 7 0;
#X connect 9 0 14 0;
#X connect 10 0 8 1;
#X connect 11 0 8 1;
#X connect 12 0 8 0;
#X connect 13 0 11 0;
#X connect 13 1 12 0;
#X connect 15 0 1 0;
#X connect 16 0 4 0;
#X connect 17 0 15 1;
#X connect 17 0 16 1;
#X connect 18 0 19 0;
#X connect 19 0 8 1;
#X restore 1286 582 pd keydown;
#X obj 1171 611 bng 40 250 50 0 empty empty Y 13 20 1 20 -86853 -1
-262144;
#N canvas 684 261 292 405 keydown 0;
#X obj 25 47 key;
#X obj 25 105 select 1;
#X obj 35 134 bng 15 250 50 0 empty empty empty 17 7 0 10 -262144 -1
-1;
#X obj 129 76 keyup;
#X obj 129 134 select 1;
#X obj 139 163 bng 15 250 50 0 empty empty empty 17 7 0 10 -262144
-1 -1;
#X obj 63 259 == 1;
#X obj 73 317 bng 15 250 50 0 empty empty empty 17 7 0 10 -262144 -1
-1;
#X obj 63 230 spigot;
#X obj 63 288 select 1;
#X msg 129 183 1;
#X msg 25 183 0;
#X msg 71 183 1;
#X obj 25 154 t b f;
#X obj 63 337 outlet;
#X obj 25 76 ==;
#X obj 129 105 ==;
#X obj 149 17 inlet;
#X obj 182 168 loadbang;
#X msg 182 197 1;
#X connect 0 0 15 0;
#X connect 1 0 2 0;
#X connect 1 0 13 0;
#X connect 3 0 16 0;
#X connect 4 0 5 0;
#X connect 4 0 10 0;
#X connect 6 0 9 0;
#X connect 8 0 6 0;
#X connect 9 0 7 0;
#X connect 9 0 14 0;
#X connect 10 0 8 1;
#X connect 11 0 8 1;
#X connect 12 0 8 0;
#X connect 13 0 11 0;
#X connect 13 1 12 0;
#X connect 15 0 1 0;
#X connect 16 0 4 0;
#X connect 17 0 15 1;
#X connect 17 0 16 1;
#X connect 18 0 19 0;
#X connect 19 0 8 1;
#X restore 872 205 pd keydown;
#X obj 983 243 bng 40 250 50 0 empty empty H 14 20 0 20 -260097 -1
-1;
#N canvas -8 -8 1920 997 keydown 0;
#X obj 25 47 key;
#X obj 25 105 select 1;
#X obj 35 134 bng 15 250 50 0 empty empty empty 17 7 0 10 -262144 -1
-1;
#X obj 129 76 keyup;
#X obj 129 134 select 1;
#X obj 139 163 bng 15 250 50 0 empty empty empty 17 7 0 10 -262144
-1 -1;
#X obj 63 259 == 1;
#X obj 73 317 bng 15 250 50 0 empty empty empty 17 7 0 10 -262144 -1
-1;
#X obj 63 230 spigot;
#X obj 63 288 select 1;
#X msg 129 183 1;
#X msg 25 183 0;
#X msg 71 183 1;
#X obj 25 154 t b f;
#X obj 63 337 outlet;
#X obj 25 76 ==;
#X obj 129 105 ==;
#X obj 149 17 inlet;
#X obj 182 168 loadbang;
#X msg 182 197 1;
#X text 319 118 Professor Salazar's keydown object: Used to send the
exact moment a key is pressed down and released.;
#X connect 0 0 15 0;
#X connect 1 0 2 0;
#X connect 1 0 13 0;
#X connect 3 0 16 0;
#X connect 4 0 5 0;
#X connect 4 0 10 0;
#X connect 6 0 9 0;
#X connect 8 0 6 0;
#X connect 9 0 7 0;
#X connect 9 0 14 0;
#X connect 10 0 8 1;
#X connect 11 0 8 1;
#X connect 12 0 8 0;
#X connect 13 0 11 0;
#X connect 13 1 12 0;
#X connect 15 0 1 0;
#X connect 16 0 4 0;
#X connect 17 0 15 1;
#X connect 17 0 16 1;
#X connect 18 0 19 0;
#X connect 19 0 8 1;
#X restore 985 213 pd keydown;
#X obj 870 235 bng 40 250 50 0 empty empty G 13 20 1 20 -260097 -1
-1;
#X obj 534 200 bng 40 250 50 0 empty empty D 14 20 1 20 -257985 -1
-1;
#N canvas 684 261 292 405 keydown 0;
#X obj 25 47 key;
#X obj 25 105 select 1;
#X obj 35 134 bng 15 250 50 0 empty empty empty 17 7 0 10 -262144 -1
-1;
#X obj 129 76 keyup;
#X obj 129 134 select 1;
#X obj 139 163 bng 15 250 50 0 empty empty empty 17 7 0 10 -262144
-1 -1;
#X obj 63 259 == 1;
#X obj 73 317 bng 15 250 50 0 empty empty empty 17 7 0 10 -262144 -1
-1;
#X obj 63 230 spigot;
#X obj 63 288 select 1;
#X msg 129 183 1;
#X msg 25 183 0;
#X msg 71 183 1;
#X obj 25 154 t b f;
#X obj 63 337 outlet;
#X obj 25 76 ==;
#X obj 129 105 ==;
#X obj 149 17 inlet;
#X obj 182 168 loadbang;
#X msg 182 197 1;
#X connect 0 0 15 0;
#X connect 1 0 2 0;
#X connect 1 0 13 0;
#X connect 3 0 16 0;
#X connect 4 0 5 0;
#X connect 4 0 10 0;
#X connect 6 0 9 0;
#X connect 8 0 6 0;
#X connect 9 0 7 0;
#X connect 9 0 14 0;
#X connect 10 0 8 1;
#X connect 11 0 8 1;
#X connect 12 0 8 0;
#X connect 13 0 11 0;
#X connect 13 1 12 0;
#X connect 15 0 1 0;
#X connect 16 0 4 0;
#X connect 17 0 15 1;
#X connect 17 0 16 1;
#X connect 18 0 19 0;
#X connect 19 0 8 1;
#X restore 534 167 pd keydown;
#X obj 661 197 bng 40 250 50 0 empty empty K 14 20 1 20 -257985 -1
-1;
#N canvas 684 261 292 405 keydown 0;
#X obj 25 47 key;
#X obj 25 105 select 1;
#X obj 35 134 bng 15 250 50 0 empty empty empty 17 7 0 10 -262144 -1
-1;
#X obj 129 76 keyup;
#X obj 129 134 select 1;
#X obj 139 163 bng 15 250 50 0 empty empty empty 17 7 0 10 -262144
-1 -1;
#X obj 63 259 == 1;
#X obj 73 317 bng 15 250 50 0 empty empty empty 17 7 0 10 -262144 -1
-1;
#X obj 63 230 spigot;
#X obj 63 288 select 1;
#X msg 129 183 1;
#X msg 25 183 0;
#X msg 71 183 1;
#X obj 25 154 t b f;
#X obj 63 337 outlet;
#X obj 25 76 ==;
#X obj 129 105 ==;
#X obj 149 17 inlet;
#X obj 182 168 loadbang;
#X msg 182 197 1;
#X connect 0 0 15 0;
#X connect 1 0 2 0;
#X connect 1 0 13 0;
#X connect 3 0 16 0;
#X connect 4 0 5 0;
#X connect 4 0 10 0;
#X connect 6 0 9 0;
#X connect 8 0 6 0;
#X connect 9 0 7 0;
#X connect 9 0 14 0;
#X connect 10 0 8 1;
#X connect 11 0 8 1;
#X connect 12 0 8 0;
#X connect 13 0 11 0;
#X connect 13 1 12 0;
#X connect 15 0 1 0;
#X connect 16 0 4 0;
#X connect 17 0 15 1;
#X connect 17 0 16 1;
#X connect 18 0 19 0;
#X connect 19 0 8 1;
#X restore 661 168 pd keydown;
#X obj 1159 377 bng 40 250 50 0 empty empty I 18 20 1 20 -4034 -1 -1
;
#N canvas 684 261 292 405 keydown 0;
#X obj 25 47 key;
#X obj 25 105 select 1;
#X obj 35 134 bng 15 250 50 0 empty empty empty 17 7 0 10 -262144 -1
-1;
#X obj 129 76 keyup;
#X obj 129 134 select 1;
#X obj 139 163 bng 15 250 50 0 empty empty empty 17 7 0 10 -262144
-1 -1;
#X obj 63 259 == 1;
#X obj 73 317 bng 15 250 50 0 empty empty empty 17 7 0 10 -262144 -1
-1;
#X obj 63 230 spigot;
#X obj 63 288 select 1;
#X msg 129 183 1;
#X msg 25 183 0;
#X msg 71 183 1;
#X obj 25 154 t b f;
#X obj 63 337 outlet;
#X obj 25 76 ==;
#X obj 129 105 ==;
#X obj 149 17 inlet;
#X obj 182 168 loadbang;
#X msg 182 197 1;
#X connect 0 0 15 0;
#X connect 1 0 2 0;
#X connect 1 0 13 0;
#X connect 3 0 16 0;
#X connect 4 0 5 0;
#X connect 4 0 10 0;
#X connect 6 0 9 0;
#X connect 8 0 6 0;
#X connect 9 0 7 0;
#X connect 9 0 14 0;
#X connect 10 0 8 1;
#X connect 11 0 8 1;
#X connect 12 0 8 0;
#X connect 13 0 11 0;
#X connect 13 1 12 0;
#X connect 15 0 1 0;
#X connect 16 0 4 0;
#X connect 17 0 15 1;
#X connect 17 0 16 1;
#X connect 18 0 19 0;
#X connect 19 0 8 1;
#X restore 1160 349 pd keydown;
#X obj 578 72 loadbang;
#X obj 896 133 loadbang;
#X obj 1160 286 loadbang;
#X obj 560 333 loadbang;
#X obj 910 405 loadbang;
#X obj 1205 510 loadbang;
#X msg 536 136 100;
#X msg 660 138 107;
#X msg 1172 547 121;
#X msg 1287 549 117;
#X msg 909 437 32;
#X msg 1160 320 105;
#X msg 519 378 118;
#X msg 643 380 110;
#X msg 870 175 103;
#X msg 987 177 104;
#X obj 870 286 hitomdrum;
#X obj 1159 439 ridecymbal;
#X obj 1171 667 floortomdrum;
#X obj 909 559 kickdrum;
#X obj 534 248 hithathit;
#X obj 516 489 snaredrum;
#X text 841 63 This is a drum set :];
#X text 755 363 Kick Drum activated by hitting space;
#X text 1273 361 Ride Cymbal activated by hitting I;
#X text 1392 593 Floor Tom activated by hitting V or U;
#X text 119 423 Snare drum activated by hitting V or N;
#X text 186 172 Hi Hat activated by hitting D or K;
#X text 1000 128 Hi Tom activated by hitting G or H;
#X text 1056 708 Reverb;
#X text 1033 778 Audio Output;
#X connect 1 0 2 0;
#X connect 3 0 46 0;
#X connect 4 0 44 0;
#X connect 5 0 0 0;
#X connect 5 0 6 0;
#X connect 6 0 0 0;
#X connect 7 0 4 0;
#X connect 8 0 3 0;
#X connect 9 0 46 0;
#X connect 10 0 9 0;
#X connect 11 0 14 0;
#X connect 12 0 43 0;
#X connect 13 0 12 0;
#X connect 14 0 43 0;
#X connect 15 0 18 0;
#X connect 16 0 41 0;
#X connect 17 0 16 0;
#X connect 18 0 41 0;
#X connect 19 0 45 0;
#X connect 20 0 19 0;
#X connect 21 0 45 0;
#X connect 22 0 21 0;
#X connect 23 0 42 0;
#X connect 24 0 23 0;
#X connect 25 0 31 0;
#X connect 25 0 32 0;
#X connect 26 0 39 0;
#X connect 26 0 40 0;
#X connect 27 0 36 0;
#X connect 28 0 37 0;
#X connect 28 0 38 0;
#X connect 29 0 35 0;
#X connect 30 0 33 0;
#X connect 30 0 34 0;
#X connect 31 0 20 0;
#X connect 32 0 22 0;
#X connect 33 0 11 0;
#X connect 34 0 13 0;
#X connect 35 0 7 0;
#X connect 36 0 24 0;
#X connect 37 0 8 0;
#X connect 38 0 10 0;
#X connect 39 0 15 0;
#X connect 40 0 17 0;
#X connect 41 0 5 0;
#X connect 42 0 5 1;
#X connect 43 0 5 1;
#X connect 44 0 5 0;
#X connect 45 0 5 0;
#X connect 46 0 5 1;
