#N canvas 953 0 958 988 10;
#X obj 13 229 noise~;
#X obj 40 372 *~;
#X obj 93 325 line~;
#X obj 325 527 *~;
#X obj 350 491 line~;
#X msg 350 432 1 5;
#X obj 417 430 del 5;
#X msg 417 457 0 60;
#X obj 160 263 del 5;
#X obj 718 836 *~;
#X obj 743 800 line~;
#X obj 810 770 del 5;
#X obj 175 527 *~;
#X obj 200 491 line~;
#X msg 200 432 1 5;
#X obj 267 430 del 5;
#X msg 743 772 0.1 5;
#X msg 94 264 0.4 5;
#X msg 267 457 0 85;
#X msg 810 790 0 20;
#X msg 159 293 0 40;
#X obj 325 396 osc~ 60;
#X obj 718 705 square~ 45;
#X obj 609 527 *~;
#X obj 634 491 line~;
#X obj 683 433 del 5;
#X obj 459 527 *~;
#X obj 484 491 line~;
#X obj 551 430 del 5;
#X msg 484 432 0.8 5;
#X msg 634 432 0.6 5;
#X obj 459 396 osc~ 80;
#X obj 609 396 osc~ 70;
#X msg 551 457 0 70;
#X msg 683 460 0 40;
#X obj 175 396 osc~ 31;
#X obj 407 256 s playftom;
#X obj 101 239 r playftom;
#X obj 227 399 r playftom;
#X obj 374 399 r playftom;
#X obj 511 402 r playftom;
#X obj 661 405 r playftom;
#X obj 759 733 r playftom;
#X obj 13 258 lop~ 500;
#X obj 41 849 *~ 1;
#X obj 408 227 inlet;
#X obj 41 870 outlet~;
#X text 396 356 Tone of Floor Tom;
#X text 62 192 Attack of Floor Tom;
#X text 741 667 Sustain of Drum Floor Tom;
#X connect 0 0 43 0;
#X connect 1 0 44 0;
#X connect 2 0 1 1;
#X connect 3 0 44 0;
#X connect 4 0 3 1;
#X connect 5 0 4 0;
#X connect 6 0 7 0;
#X connect 7 0 4 0;
#X connect 8 0 20 0;
#X connect 9 0 44 0;
#X connect 10 0 9 1;
#X connect 11 0 19 0;
#X connect 12 0 44 0;
#X connect 13 0 12 1;
#X connect 14 0 13 0;
#X connect 15 0 18 0;
#X connect 16 0 10 0;
#X connect 17 0 2 0;
#X connect 18 0 13 0;
#X connect 19 0 10 0;
#X connect 20 0 2 0;
#X connect 21 0 3 0;
#X connect 22 0 9 0;
#X connect 23 0 44 0;
#X connect 24 0 23 1;
#X connect 25 0 34 0;
#X connect 26 0 44 0;
#X connect 27 0 26 1;
#X connect 28 0 33 0;
#X connect 29 0 27 0;
#X connect 30 0 24 0;
#X connect 31 0 26 0;
#X connect 32 0 23 0;
#X connect 33 0 27 0;
#X connect 34 0 24 0;
#X connect 35 0 12 0;
#X connect 37 0 17 0;
#X connect 37 0 8 0;
#X connect 37 0 0 0;
#X connect 38 0 14 0;
#X connect 38 0 15 0;
#X connect 38 0 35 0;
#X connect 39 0 5 0;
#X connect 39 0 6 0;
#X connect 39 0 21 0;
#X connect 40 0 29 0;
#X connect 40 0 28 0;
#X connect 40 0 31 0;
#X connect 41 0 30 0;
#X connect 41 0 25 0;
#X connect 41 0 32 0;
#X connect 42 0 16 0;
#X connect 42 0 11 0;
#X connect 42 0 22 0;
#X connect 43 0 1 0;
#X connect 44 0 46 0;
#X connect 45 0 36 0;
