#N canvas -7 0 958 988 10;
#X obj 21 331 noise~;
#X obj 48 474 *~;
#X obj 101 427 line~;
#X obj 390 468 *~;
#X obj 415 432 line~;
#X obj 482 371 del 5;
#X obj 168 365 del 5;
#X obj 817 480 *~;
#X obj 842 444 line~;
#X obj 240 468 *~;
#X obj 265 432 line~;
#X obj 332 371 del 5;
#X obj 145 654 output~;
#X obj 176 605 rev2~ 100 75 3000 60;
#X obj 674 468 *~;
#X obj 699 432 line~;
#X obj 766 371 del 5;
#X obj 524 468 *~;
#X obj 549 432 line~;
#X obj 616 371 del 5;
#X msg 549 373 0.8 5;
#X msg 699 373 0.6 5;
#X msg 616 398 0 70;
#X obj 407 175 bng 50 250 50 0 empty empty empty 17 7 0 10 -262144
-1 -1;
#N canvas 684 261 292 405 keydown 0;
#X obj 25 47 key;
#X obj 25 105 select 1;
#X obj 35 134 bng 15 250 50 0 empty empty empty 17 7 0 10 -262144 -1
-1;
#X obj 129 76 keyup;
#X obj 129 134 select 1;
#X obj 139 163 bng 15 250 50 0 empty empty empty 17 7 0 10 -262144
-1 -1;
#X obj 63 259 == 1;
#X obj 73 317 bng 15 250 50 0 empty empty empty 17 7 0 10 -262144 -1
-1;
#X obj 63 230 spigot;
#X obj 63 288 select 1;
#X msg 129 183 1;
#X msg 25 183 0;
#X msg 71 183 1;
#X obj 25 154 t b f;
#X obj 63 337 outlet;
#X obj 25 76 ==;
#X obj 129 105 ==;
#X obj 149 17 inlet;
#X obj 182 168 loadbang;
#X msg 182 197 1;
#X connect 0 0 15 0;
#X connect 1 0 2 0;
#X connect 1 0 13 0;
#X connect 3 0 16 0;
#X connect 4 0 5 0;
#X connect 4 0 10 0;
#X connect 6 0 9 0;
#X connect 8 0 6 0;
#X connect 9 0 7 0;
#X connect 9 0 14 0;
#X connect 10 0 8 1;
#X connect 11 0 8 1;
#X connect 12 0 8 0;
#X connect 13 0 11 0;
#X connect 13 1 12 0;
#X connect 15 0 1 0;
#X connect 16 0 4 0;
#X connect 17 0 15 1;
#X connect 17 0 16 1;
#X connect 18 0 19 0;
#X connect 19 0 8 1;
#X restore 409 134 pd keydown;
#X obj 550 175 bng 50 250 50 0 empty empty empty 17 7 0 10 -262144
-1 -1;
#N canvas 684 261 292 405 keydown 0;
#X obj 25 47 key;
#X obj 25 105 select 1;
#X obj 35 134 bng 15 250 50 0 empty empty empty 17 7 0 10 -262144 -1
-1;
#X obj 129 76 keyup;
#X obj 129 134 select 1;
#X obj 139 163 bng 15 250 50 0 empty empty empty 17 7 0 10 -262144
-1 -1;
#X obj 63 259 == 1;
#X obj 73 317 bng 15 250 50 0 empty empty empty 17 7 0 10 -262144 -1
-1;
#X obj 63 230 spigot;
#X obj 63 288 select 1;
#X msg 129 183 1;
#X msg 25 183 0;
#X msg 71 183 1;
#X obj 25 154 t b f;
#X obj 63 337 outlet;
#X obj 25 76 ==;
#X obj 129 105 ==;
#X obj 149 17 inlet;
#X obj 182 168 loadbang;
#X msg 182 197 1;
#X connect 0 0 15 0;
#X connect 1 0 2 0;
#X connect 1 0 13 0;
#X connect 3 0 16 0;
#X connect 4 0 5 0;
#X connect 4 0 10 0;
#X connect 6 0 9 0;
#X connect 8 0 6 0;
#X connect 9 0 7 0;
#X connect 9 0 14 0;
#X connect 10 0 8 1;
#X connect 11 0 8 1;
#X connect 12 0 8 0;
#X connect 13 0 11 0;
#X connect 13 1 12 0;
#X connect 15 0 1 0;
#X connect 16 0 4 0;
#X connect 17 0 15 1;
#X connect 17 0 16 1;
#X connect 18 0 19 0;
#X connect 19 0 8 1;
#X restore 552 134 pd keydown;
#X obj 476 44 loadbang;
#X obj 524 337 osc~ 150;
#X obj 674 337 osc~ 100;
#X msg 416 89 103;
#X msg 558 93 104;
#X msg 332 398 0 10;
#X msg 482 398 0 10;
#X obj 381 321 triangle~ 560;
#X obj 240 337 osc~ 480;
#X obj 817 349 square~ 75;
#X msg 909 434 0 15;
#X obj 909 414 del 10;
#X msg 842 416 0.45 5;
#X msg 265 373 0.5 5;
#X obj 407 256 s playhtom;
#X obj 109 341 r playhtom;
#X obj 292 340 r playhtom;
#X obj 439 340 r playhtom;
#X obj 576 343 r playhtom;
#X obj 726 346 r playhtom;
#X obj 858 377 r playhtom;
#X obj 21 360 lop~ 1500;
#X msg 102 366 0.2 5;
#X msg 167 395 0 15;
#X msg 766 398 0 50;
#X msg 415 373 0.5 5;
#X obj 144 567 *~ 0.5;
#X connect 0 0 48 0;
#X connect 1 0 53 0;
#X connect 2 0 1 1;
#X connect 3 0 53 0;
#X connect 4 0 3 1;
#X connect 5 0 33 0;
#X connect 6 0 50 0;
#X connect 7 0 53 0;
#X connect 8 0 7 1;
#X connect 9 0 53 0;
#X connect 10 0 9 1;
#X connect 11 0 32 0;
#X connect 13 0 12 0;
#X connect 14 0 53 0;
#X connect 15 0 14 1;
#X connect 16 0 51 0;
#X connect 17 0 53 0;
#X connect 18 0 17 1;
#X connect 19 0 22 0;
#X connect 20 0 18 0;
#X connect 21 0 15 0;
#X connect 22 0 18 0;
#X connect 23 0 41 0;
#X connect 24 0 23 0;
#X connect 25 0 41 0;
#X connect 26 0 25 0;
#X connect 27 0 31 0;
#X connect 27 0 30 0;
#X connect 28 0 17 0;
#X connect 29 0 14 0;
#X connect 30 0 24 0;
#X connect 31 0 26 0;
#X connect 32 0 10 0;
#X connect 33 0 4 0;
#X connect 34 0 3 0;
#X connect 35 0 9 0;
#X connect 36 0 7 0;
#X connect 37 0 8 0;
#X connect 38 0 37 0;
#X connect 39 0 8 0;
#X connect 40 0 10 0;
#X connect 42 0 49 0;
#X connect 42 0 6 0;
#X connect 42 0 0 0;
#X connect 43 0 40 0;
#X connect 43 0 11 0;
#X connect 43 0 35 0;
#X connect 44 0 52 0;
#X connect 44 0 5 0;
#X connect 44 0 34 0;
#X connect 45 0 20 0;
#X connect 45 0 19 0;
#X connect 45 0 28 0;
#X connect 46 0 21 0;
#X connect 46 0 16 0;
#X connect 46 0 29 0;
#X connect 47 0 39 0;
#X connect 47 0 36 0;
#X connect 47 0 38 0;
#X connect 48 0 1 0;
#X connect 49 0 2 0;
#X connect 50 0 2 0;
#X connect 51 0 15 0;
#X connect 52 0 4 0;
#X connect 53 0 12 0;
#X connect 53 0 13 0;
