#N canvas -8 -8 1920 997 16;
#X obj 270 371 noise~;
#X obj 325 479 line~;
#X obj 1109 487 line~;
#X obj 802 844 output~;
#X msg 325 448 1 5;
#X obj 796 521 bp~ 10000 50;
#X obj 619 265 s pitch;
#X obj 488 372 r pitch;
#X obj 570 370 r pitch;
#X obj 572 442 square~;
#X obj 663 371 r pitch;
#X obj 665 443 square~;
#X obj 750 371 r pitch;
#X obj 752 443 square~;
#X obj 836 373 r pitch;
#X obj 838 445 square~;
#X obj 918 373 r pitch;
#X obj 920 445 square~;
#X obj 750 403 * 4.16;
#X obj 836 405 * 5.43;
#X obj 918 405 * 6.79;
#X obj 1007 373 r pitch;
#X obj 1009 445 square~;
#X obj 1007 405 * 8.21;
#X obj 487 417 square~;
#X obj 392 448 del 7;
#X msg 1109 458 0.3 20;
#X text 1059 227 sends to pitch system and attack system the action
of playing the sounds;
#X text 1019 839 audio output system;
#X text 1262 413 7 square wave pitch system used to produce the effect
of hihat after the attack;
#X text 236 47 this is an experimental replication of an 808 hi hat
;
#X msg 619 235 200;
#X obj 619 206 loadbang;
#X text 203 221 sends pitch of 200 to pitch system;
#X obj 779 201 bng 50 250 50 0 empty empty empty 17 7 0 10 -262144
-1 -1;
#N canvas 684 261 292 405 keydown 0;
#X obj 25 47 key;
#X obj 25 105 select 1;
#X obj 35 134 bng 15 250 50 0 empty empty empty 17 7 0 10 -262144 -1
-1;
#X obj 129 76 keyup;
#X obj 129 134 select 1;
#X obj 139 163 bng 15 250 50 0 empty empty empty 17 7 0 10 -262144
-1 -1;
#X obj 63 259 == 1;
#X obj 73 317 bng 15 250 50 0 empty empty empty 17 7 0 10 -262144 -1
-1;
#X obj 63 230 spigot;
#X obj 63 288 select 1;
#X msg 129 183 1;
#X msg 25 183 0;
#X msg 71 183 1;
#X obj 25 154 t b f;
#X obj 63 337 outlet;
#X obj 25 76 ==;
#X obj 129 105 ==;
#X obj 149 17 inlet;
#X obj 182 168 loadbang;
#X msg 182 197 1;
#X connect 0 0 15 0;
#X connect 1 0 2 0;
#X connect 1 0 13 0;
#X connect 3 0 16 0;
#X connect 4 0 5 0;
#X connect 4 0 10 0;
#X connect 6 0 9 0;
#X connect 8 0 6 0;
#X connect 9 0 7 0;
#X connect 9 0 14 0;
#X connect 10 0 8 1;
#X connect 11 0 8 1;
#X connect 12 0 8 0;
#X connect 13 0 11 0;
#X connect 13 1 12 0;
#X connect 15 0 1 0;
#X connect 16 0 4 0;
#X connect 17 0 15 1;
#X connect 17 0 16 1;
#X connect 18 0 19 0;
#X connect 19 0 8 1;
#X restore 781 160 pd keydown;
#X obj 922 201 bng 50 250 50 0 empty empty empty 17 7 0 10 -262144
-1 -1;
#N canvas 684 261 292 405 keydown 0;
#X obj 25 47 key;
#X obj 25 105 select 1;
#X obj 35 134 bng 15 250 50 0 empty empty empty 17 7 0 10 -262144 -1
-1;
#X obj 129 76 keyup;
#X obj 129 134 select 1;
#X obj 139 163 bng 15 250 50 0 empty empty empty 17 7 0 10 -262144
-1 -1;
#X obj 63 259 == 1;
#X obj 73 317 bng 15 250 50 0 empty empty empty 17 7 0 10 -262144 -1
-1;
#X obj 63 230 spigot;
#X obj 63 288 select 1;
#X msg 129 183 1;
#X msg 25 183 0;
#X msg 71 183 1;
#X obj 25 154 t b f;
#X obj 63 337 outlet;
#X obj 25 76 ==;
#X obj 129 105 ==;
#X obj 149 17 inlet;
#X obj 182 168 loadbang;
#X msg 182 197 1;
#X connect 0 0 15 0;
#X connect 1 0 2 0;
#X connect 1 0 13 0;
#X connect 3 0 16 0;
#X connect 4 0 5 0;
#X connect 4 0 10 0;
#X connect 6 0 9 0;
#X connect 8 0 6 0;
#X connect 9 0 7 0;
#X connect 9 0 14 0;
#X connect 10 0 8 1;
#X connect 11 0 8 1;
#X connect 12 0 8 0;
#X connect 13 0 11 0;
#X connect 13 1 12 0;
#X connect 15 0 1 0;
#X connect 16 0 4 0;
#X connect 17 0 15 1;
#X connect 17 0 16 1;
#X connect 18 0 19 0;
#X connect 19 0 8 1;
#X restore 924 160 pd keydown;
#X obj 848 70 loadbang;
#X obj 1110 421 r playhihat;
#X obj 779 282 s playhihat;
#X msg 788 115 100;
#X msg 930 119 107;
#X obj 334 396 r playhihat;
#X obj 1184 456 del 5;
#X msg 1184 485 0 40;
#X msg 392 477 0 30;
#X obj 797 559 hip~ 7000;
#X obj 571 406 * 2.35;
#X obj 663 403 * 3.57;
#X obj 269 518 *~;
#X obj 824 786 rev2~ 100 70 3000 60;
#X obj 969 611 *~;
#X obj 803 733 *~ 0.3;
#X connect 0 0 50 0;
#X connect 1 0 50 1;
#X connect 2 0 52 1;
#X connect 4 0 1 0;
#X connect 5 0 47 0;
#X connect 7 0 24 0;
#X connect 8 0 48 0;
#X connect 9 0 5 0;
#X connect 10 0 49 0;
#X connect 11 0 5 0;
#X connect 12 0 18 0;
#X connect 13 0 5 0;
#X connect 14 0 19 0;
#X connect 15 0 5 0;
#X connect 16 0 20 0;
#X connect 17 0 5 0;
#X connect 18 0 13 0;
#X connect 19 0 15 0;
#X connect 20 0 17 0;
#X connect 21 0 23 0;
#X connect 22 0 5 0;
#X connect 23 0 22 0;
#X connect 24 0 5 0;
#X connect 25 0 46 0;
#X connect 26 0 2 0;
#X connect 31 0 6 0;
#X connect 32 0 31 0;
#X connect 34 0 40 0;
#X connect 35 0 34 0;
#X connect 36 0 40 0;
#X connect 37 0 36 0;
#X connect 38 0 42 0;
#X connect 38 0 41 0;
#X connect 39 0 26 0;
#X connect 39 0 44 0;
#X connect 41 0 35 0;
#X connect 42 0 37 0;
#X connect 43 0 4 0;
#X connect 43 0 25 0;
#X connect 44 0 45 0;
#X connect 45 0 2 0;
#X connect 46 0 1 0;
#X connect 47 0 52 0;
#X connect 48 0 9 0;
#X connect 49 0 11 0;
#X connect 50 0 53 0;
#X connect 51 0 3 0;
#X connect 52 0 53 0;
#X connect 53 0 51 0;
#X connect 53 0 3 0;
