#N canvas -8 -8 1920 997 16;
#X obj 510 546 noise~;
#X obj 509 693 *~;
#X obj 565 654 line~;
#X obj 802 723 *~;
#X obj 981 557 line~;
#X obj 777 196 bng 50 250 50 0 empty empty empty 17 7 0 10 -262144
-1 -1;
#X obj 802 807 output~;
#X msg 632 652 0 15;
#X msg 565 623 1 5;
#X obj 837 531 bp~ 10000 50;
#X msg 1056 555 0 10;
#X obj 618 280 s pitch;
#X obj 488 372 r pitch;
#X obj 570 370 r pitch;
#X obj 572 442 square~;
#X obj 663 371 r pitch;
#X obj 665 443 square~;
#X obj 750 371 r pitch;
#X obj 752 443 square~;
#X obj 836 373 r pitch;
#X obj 838 445 square~;
#X obj 918 373 r pitch;
#X obj 920 445 square~;
#X obj 571 406 * 2;
#X obj 663 403 * 3;
#X obj 750 403 * 4.16;
#X obj 836 405 * 5.43;
#X obj 918 405 * 6.79;
#X obj 1007 373 r pitch;
#X obj 1009 445 square~;
#X obj 1007 405 * 8.21;
#X obj 777 256 s play;
#X obj 982 491 r play;
#X obj 487 417 square~;
#X floatatom 618 248 5 0 0 0 - - -;
#X obj 574 571 r play;
#X obj 632 623 del 7;
#X msg 981 528 0.3 20;
#X obj 1056 526 del 25;
#X obj 838 569 hip~ 4000;
#X text 863 205 sends to pitch system and attack system the action
of playing the sounds;
#X text 23 554 noise used to produce the attack of a hi-hat;
#X text 1019 839 audio output system;
#X text 1111 392 7 square wave pitch system used to produce the effect
of hihat after the attack;
#X text 734 74 this is an experimental replication of an 808 hi hat
;
#X text 43 259 sends pitch of 200 (must set manurally) to pitch system
;
#X connect 0 0 1 0;
#X connect 1 0 3 0;
#X connect 2 0 1 1;
#X connect 3 0 6 0;
#X connect 4 0 3 1;
#X connect 5 0 31 0;
#X connect 7 0 2 0;
#X connect 8 0 2 0;
#X connect 9 0 39 0;
#X connect 10 0 4 0;
#X connect 12 0 33 0;
#X connect 13 0 23 0;
#X connect 14 0 9 0;
#X connect 15 0 24 0;
#X connect 16 0 9 0;
#X connect 17 0 25 0;
#X connect 18 0 9 0;
#X connect 19 0 26 0;
#X connect 20 0 9 0;
#X connect 21 0 27 0;
#X connect 22 0 9 0;
#X connect 23 0 14 0;
#X connect 24 0 16 0;
#X connect 25 0 18 0;
#X connect 26 0 20 0;
#X connect 27 0 22 0;
#X connect 28 0 30 0;
#X connect 29 0 9 0;
#X connect 30 0 29 0;
#X connect 32 0 37 0;
#X connect 32 0 38 0;
#X connect 33 0 9 0;
#X connect 34 0 11 0;
#X connect 35 0 8 0;
#X connect 35 0 36 0;
#X connect 36 0 7 0;
#X connect 37 0 4 0;
#X connect 38 0 10 0;
#X connect 39 0 3 0;
