#N canvas -8 -8 1920 997 16;
#X obj 599 360 noise~;
#X obj 654 468 line~;
#X obj 1324 582 line~;
#X msg 654 437 1 5;
#X obj 1130 550 bp~ 10000 50;
#X obj 488 298 s pitch;
#X obj 878 378 r pitch;
#X obj 960 376 r pitch;
#X obj 962 448 square~;
#X obj 1053 377 r pitch;
#X obj 1055 449 square~;
#X obj 1140 377 r pitch;
#X obj 1142 449 square~;
#X obj 1226 379 r pitch;
#X obj 1228 451 square~;
#X obj 1308 379 r pitch;
#X obj 1310 451 square~;
#X obj 1140 409 * 4.16;
#X obj 1226 411 * 5.43;
#X obj 1308 411 * 6.79;
#X obj 1397 379 r pitch;
#X obj 1399 451 square~;
#X obj 1397 411 * 8.21;
#X obj 877 423 square~;
#X msg 1324 553 0.3 20;
#X text 891 322 7 square wave pitch system used to produce the effect
of hihat after the attack;
#X msg 488 268 200;
#X obj 488 239 loadbang;
#X text 127 267 sends pitch of 200 to pitch system;
#X obj 1325 516 r playhihat;
#X obj 680 173 s playhihat;
#X obj 663 385 r playhihat;
#X obj 1399 551 del 5;
#X msg 1399 580 0 40;
#X msg 721 466 0 30;
#X obj 1131 588 hip~ 7000;
#X obj 961 412 * 2.35;
#X obj 1053 409 * 3.57;
#X obj 598 507 *~;
#X obj 1190 647 *~;
#X obj 598 670 *~ 0.3;
#X obj 680 133 inlet;
#X obj 597 713 outlet~;
#X obj 721 437 del 5;
#X text 609 323 Attack of Hi Hat;
#X connect 0 0 38 0;
#X connect 1 0 38 1;
#X connect 2 0 39 1;
#X connect 3 0 1 0;
#X connect 4 0 35 0;
#X connect 6 0 23 0;
#X connect 7 0 36 0;
#X connect 8 0 4 0;
#X connect 9 0 37 0;
#X connect 10 0 4 0;
#X connect 11 0 17 0;
#X connect 12 0 4 0;
#X connect 13 0 18 0;
#X connect 14 0 4 0;
#X connect 15 0 19 0;
#X connect 16 0 4 0;
#X connect 17 0 12 0;
#X connect 18 0 14 0;
#X connect 19 0 16 0;
#X connect 20 0 22 0;
#X connect 21 0 4 0;
#X connect 22 0 21 0;
#X connect 23 0 4 0;
#X connect 24 0 2 0;
#X connect 26 0 5 0;
#X connect 27 0 26 0;
#X connect 29 0 24 0;
#X connect 29 0 32 0;
#X connect 31 0 3 0;
#X connect 31 0 43 0;
#X connect 32 0 33 0;
#X connect 33 0 2 0;
#X connect 34 0 1 0;
#X connect 35 0 39 0;
#X connect 36 0 8 0;
#X connect 37 0 10 0;
#X connect 38 0 40 0;
#X connect 39 0 40 0;
#X connect 40 0 42 0;
#X connect 41 0 30 0;
#X connect 43 0 34 0;
