#N canvas 953 0 958 988 10;
#X obj 24 196 noise~;
#X obj 23 339 *~;
#X obj 104 292 line~;
#X obj 348 468 *~;
#X obj 415 432 line~;
#X obj 482 371 del 5;
#X obj 171 230 del 5;
#X obj 681 750 *~;
#X obj 706 714 line~;
#X obj 196 466 *~;
#X obj 221 430 line~;
#X obj 288 369 del 5;
#X obj 674 468 *~;
#X obj 699 432 line~;
#X obj 766 371 del 5;
#X obj 524 468 *~;
#X obj 549 432 line~;
#X obj 616 371 del 5;
#X msg 549 373 0.8 5;
#X msg 699 373 0.6 5;
#X msg 616 398 0 70;
#X obj 524 342 osc~ 150;
#X obj 674 337 osc~ 100;
#X msg 288 396 0 10;
#X msg 482 398 0 10;
#X obj 351 340 triangle~ 560;
#X obj 196 335 osc~ 480;
#X obj 681 619 square~ 75;
#X msg 773 704 0 15;
#X obj 773 684 del 10;
#X msg 706 686 0.45 5;
#X msg 221 371 0.5 5;
#X obj 411 133 s playhtom;
#X obj 112 206 r playhtom;
#X obj 248 338 r playhtom;
#X obj 439 340 r playhtom;
#X obj 581 342 r playhtom;
#X obj 732 338 r playhtom;
#X obj 722 647 r playhtom;
#X obj 24 225 lop~ 1500;
#X msg 105 231 0.2 5;
#X msg 170 260 0 15;
#X msg 766 398 0 50;
#X msg 415 373 0.5 5;
#X obj 22 765 *~ 0.5;
#X obj 412 108 inlet;
#X obj 22 794 outlet~;
#X text 427 288 Hi Tom Tone;
#X text 50 167 Hi Tom Attack;
#X text 680 587 Hi Tom Sustain;
#X connect 0 0 39 0;
#X connect 1 0 44 0;
#X connect 2 0 1 1;
#X connect 3 0 44 0;
#X connect 4 0 3 1;
#X connect 5 0 24 0;
#X connect 6 0 41 0;
#X connect 7 0 44 0;
#X connect 8 0 7 1;
#X connect 9 0 44 0;
#X connect 10 0 9 1;
#X connect 11 0 23 0;
#X connect 12 0 44 0;
#X connect 13 0 12 1;
#X connect 14 0 42 0;
#X connect 15 0 44 0;
#X connect 16 0 15 1;
#X connect 17 0 20 0;
#X connect 18 0 16 0;
#X connect 19 0 13 0;
#X connect 20 0 16 0;
#X connect 21 0 15 0;
#X connect 22 0 12 0;
#X connect 23 0 10 0;
#X connect 24 0 4 0;
#X connect 25 0 3 0;
#X connect 26 0 9 0;
#X connect 27 0 7 0;
#X connect 28 0 8 0;
#X connect 29 0 28 0;
#X connect 30 0 8 0;
#X connect 31 0 10 0;
#X connect 33 0 40 0;
#X connect 33 0 6 0;
#X connect 33 0 0 0;
#X connect 34 0 31 0;
#X connect 34 0 11 0;
#X connect 34 0 26 0;
#X connect 35 0 43 0;
#X connect 35 0 5 0;
#X connect 35 0 25 0;
#X connect 36 0 18 0;
#X connect 36 0 17 0;
#X connect 36 0 21 0;
#X connect 37 0 19 0;
#X connect 37 0 14 0;
#X connect 37 0 22 0;
#X connect 38 0 30 0;
#X connect 38 0 27 0;
#X connect 38 0 29 0;
#X connect 39 0 1 0;
#X connect 40 0 2 0;
#X connect 41 0 2 0;
#X connect 42 0 13 0;
#X connect 43 0 4 0;
#X connect 44 0 46 0;
#X connect 45 0 32 0;
