#N canvas 953 0 958 988 10;
#X obj 25 394 noise~;
#X obj 52 537 *~;
#X obj 105 490 line~;
#X obj 371 531 *~;
#X obj 396 495 line~;
#X msg 396 436 1 5;
#X obj 463 434 del 5;
#X msg 463 461 0 60;
#X obj 172 428 del 5;
#X obj 788 531 *~;
#X obj 839 495 line~;
#X obj 906 434 del 5;
#X obj 371 400 osc~ 50;
#X obj 221 531 *~;
#X obj 246 495 line~;
#X msg 246 436 1 5;
#X obj 313 434 del 5;
#X obj 221 400 osc~ 30;
#X msg 839 436 0.1 5;
#X obj 788 400 square~ 40;
#X msg 106 429 0.4 5;
#X obj 142 668 +~;
#X obj 142 743 output~;
#X obj 332 204 bng 50 250 50 0 empty empty empty 17 7 0 10 -262144
-1 -1;
#N canvas 684 261 292 405 keydown 0;
#X obj 25 47 key;
#X obj 25 105 select 1;
#X obj 35 134 bng 15 250 50 0 empty empty empty 17 7 0 10 -262144 -1
-1;
#X obj 129 76 keyup;
#X obj 129 134 select 1;
#X obj 139 163 bng 15 250 50 0 empty empty empty 17 7 0 10 -262144
-1 -1;
#X obj 63 259 == 1;
#X obj 73 317 bng 15 250 50 0 empty empty empty 17 7 0 10 -262144 -1
-1;
#X obj 63 230 spigot;
#X obj 63 288 select 1;
#X msg 129 183 1;
#X msg 25 183 0;
#X msg 71 183 1;
#X obj 25 154 t b f;
#X obj 63 337 outlet;
#X obj 25 76 ==;
#X obj 129 105 ==;
#X obj 149 17 inlet;
#X obj 182 168 loadbang;
#X msg 182 197 1;
#X connect 0 0 15 0;
#X connect 1 0 2 0;
#X connect 1 0 13 0;
#X connect 3 0 16 0;
#X connect 4 0 5 0;
#X connect 4 0 10 0;
#X connect 6 0 9 0;
#X connect 8 0 6 0;
#X connect 9 0 7 0;
#X connect 9 0 14 0;
#X connect 10 0 8 1;
#X connect 11 0 8 1;
#X connect 12 0 8 0;
#X connect 13 0 11 0;
#X connect 13 1 12 0;
#X connect 15 0 1 0;
#X connect 16 0 4 0;
#X connect 17 0 15 1;
#X connect 17 0 16 1;
#X connect 18 0 19 0;
#X connect 19 0 8 1;
#X restore 334 163 pd keydown;
#X obj 341 66 loadbang;
#X obj 332 285 s playkick;
#X msg 341 118 32;
#X obj 112 397 r playick;
#X obj 282 406 r playkick;
#X obj 433 406 r playkick;
#X obj 865 414 r playkick;
#X obj 174 701 rev2~ 100 75 3000 60;
#X obj 25 423 lop~ 60;
#X obj 654 527 *~;
#X obj 679 491 line~;
#X msg 679 432 1 5;
#X obj 746 430 del 5;
#X msg 746 457 0 60;
#X obj 654 396 osc~ 50;
#X obj 504 527 *~;
#X obj 529 491 line~;
#X msg 529 432 1 5;
#X obj 596 430 del 5;
#X obj 504 396 osc~ 30;
#X obj 565 402 r playkick;
#X obj 716 402 r playkick;
#X msg 596 457 0 50;
#X msg 906 461 0 20;
#X msg 313 461 0 65;
#X msg 171 458 0 36;
#X obj 142 640 *~ 1;
#X connect 0 0 33 0;
#X connect 1 0 51 0;
#X connect 2 0 1 1;
#X connect 3 0 51 0;
#X connect 4 0 3 1;
#X connect 5 0 4 0;
#X connect 6 0 7 0;
#X connect 7 0 4 0;
#X connect 8 0 50 0;
#X connect 9 0 51 0;
#X connect 10 0 9 1;
#X connect 11 0 48 0;
#X connect 12 0 3 0;
#X connect 13 0 51 0;
#X connect 14 0 13 1;
#X connect 15 0 14 0;
#X connect 16 0 49 0;
#X connect 17 0 13 0;
#X connect 18 0 10 0;
#X connect 19 0 9 0;
#X connect 20 0 2 0;
#X connect 21 0 22 0;
#X connect 21 0 32 0;
#X connect 23 0 26 0;
#X connect 24 0 23 0;
#X connect 25 0 27 0;
#X connect 27 0 24 0;
#X connect 28 0 20 0;
#X connect 28 0 8 0;
#X connect 28 0 0 0;
#X connect 29 0 15 0;
#X connect 29 0 16 0;
#X connect 29 0 17 0;
#X connect 30 0 5 0;
#X connect 30 0 6 0;
#X connect 30 0 12 0;
#X connect 31 0 18 0;
#X connect 31 0 11 0;
#X connect 31 0 19 0;
#X connect 32 0 22 0;
#X connect 33 0 1 0;
#X connect 34 0 51 0;
#X connect 35 0 34 1;
#X connect 36 0 35 0;
#X connect 37 0 38 0;
#X connect 38 0 35 0;
#X connect 39 0 34 0;
#X connect 40 0 51 0;
#X connect 41 0 40 1;
#X connect 42 0 41 0;
#X connect 43 0 47 0;
#X connect 44 0 40 0;
#X connect 45 0 42 0;
#X connect 45 0 43 0;
#X connect 45 0 44 0;
#X connect 46 0 36 0;
#X connect 46 0 37 0;
#X connect 46 0 39 0;
#X connect 47 0 41 0;
#X connect 48 0 10 0;
#X connect 49 0 14 0;
#X connect 50 0 2 0;
#X connect 51 0 21 0;
