#N canvas 953 0 958 988 10;
#X obj 18 250 noise~;
#X obj 45 393 *~;
#X obj 98 346 line~;
#X obj 371 531 *~;
#X obj 396 495 line~;
#X msg 396 436 1 5;
#X obj 463 434 del 5;
#X msg 463 461 0 60;
#X obj 165 284 del 5;
#X obj 748 781 *~;
#X obj 799 745 line~;
#X obj 866 684 del 5;
#X obj 371 400 osc~ 50;
#X obj 221 531 *~;
#X obj 246 495 line~;
#X msg 246 436 1 5;
#X obj 313 434 del 5;
#X obj 221 400 osc~ 30;
#X msg 799 686 0.1 5;
#X obj 748 650 square~ 40;
#X msg 99 285 0.4 5;
#X obj 332 285 s playkick;
#X obj 105 253 r playick;
#X obj 282 406 r playkick;
#X obj 433 406 r playkick;
#X obj 825 664 r playkick;
#X obj 18 279 lop~ 60;
#X obj 654 527 *~;
#X obj 679 491 line~;
#X msg 679 432 1 5;
#X obj 746 430 del 5;
#X msg 746 457 0 60;
#X obj 654 396 osc~ 50;
#X obj 504 527 *~;
#X obj 529 491 line~;
#X msg 529 432 1 5;
#X obj 596 430 del 5;
#X obj 504 396 osc~ 30;
#X obj 565 402 r playkick;
#X obj 716 402 r playkick;
#X msg 596 457 0 50;
#X msg 866 711 0 20;
#X msg 313 461 0 65;
#X msg 164 314 0 36;
#X obj 332 236 inlet;
#X obj 45 838 outlet~;
#X text 461 361 Bass THUMP;
#X text 39 213 Attack of Kick Drum;
#X text 760 622 Sustain of Bass Sound;
#X obj 46 795 *~ 1.5;
#X connect 0 0 26 0;
#X connect 1 0 49 0;
#X connect 2 0 1 1;
#X connect 3 0 49 0;
#X connect 4 0 3 1;
#X connect 5 0 4 0;
#X connect 6 0 7 0;
#X connect 7 0 4 0;
#X connect 8 0 43 0;
#X connect 9 0 49 0;
#X connect 10 0 9 1;
#X connect 11 0 41 0;
#X connect 12 0 3 0;
#X connect 13 0 49 0;
#X connect 14 0 13 1;
#X connect 15 0 14 0;
#X connect 16 0 42 0;
#X connect 17 0 13 0;
#X connect 18 0 10 0;
#X connect 19 0 9 0;
#X connect 20 0 2 0;
#X connect 22 0 20 0;
#X connect 22 0 8 0;
#X connect 22 0 0 0;
#X connect 23 0 15 0;
#X connect 23 0 16 0;
#X connect 23 0 17 0;
#X connect 24 0 5 0;
#X connect 24 0 6 0;
#X connect 24 0 12 0;
#X connect 25 0 18 0;
#X connect 25 0 11 0;
#X connect 25 0 19 0;
#X connect 26 0 1 0;
#X connect 27 0 49 0;
#X connect 28 0 27 1;
#X connect 29 0 28 0;
#X connect 30 0 31 0;
#X connect 31 0 28 0;
#X connect 32 0 27 0;
#X connect 33 0 49 0;
#X connect 34 0 33 1;
#X connect 35 0 34 0;
#X connect 36 0 40 0;
#X connect 37 0 33 0;
#X connect 38 0 35 0;
#X connect 38 0 36 0;
#X connect 38 0 37 0;
#X connect 39 0 29 0;
#X connect 39 0 30 0;
#X connect 39 0 32 0;
#X connect 40 0 34 0;
#X connect 41 0 10 0;
#X connect 42 0 14 0;
#X connect 43 0 2 0;
#X connect 44 0 21 0;
#X connect 49 0 45 0;
