#N canvas 733 268 700 420 16;
#X obj 18 60 hsl 128 15 0 100 0 0 empty empty Volume -2 -8 0 10 -204800
-1 -1 0 1;
#X obj 20 20 tgl 15 0 empty empty On/Off 17 7 0 10 -204786 -1 -1 0
1;
#X floatatom 153 54 5 0 0 0 - - -;
#X text 136 16 Volume;
#X obj 16 106 inlet~;
#X obj 47 224 *~;
#X obj 121 318 *~;
#X obj 115 162 dbtorms;
#X msg 115 191 \$1 20;
#X obj 115 220 line~;
#X msg 242 283 \$1 20;
#X obj 242 312 line~;
#X text 220 7 Using Graph-on-Parent (right-click on the;
#X text 220 35 canvas and go to properties) \, we can create;
#X text 220 63 a region which will be shown when this patch;
#X text 220 91 is called as an object in another patch in the;
#X text 220 119 same folder.;
#X text 86 108 Audio In;
#X text 204 195 Our usual volume control;
#X text 315 297 Our on/off control;
#X obj 121 357 dac~;
#X text 175 358 Output directly to dac~;
#X connect 0 0 2 0;
#X connect 0 0 7 0;
#X connect 1 0 10 0;
#X connect 4 0 5 0;
#X connect 5 0 6 0;
#X connect 6 0 20 0;
#X connect 6 0 20 1;
#X connect 7 0 8 0;
#X connect 8 0 9 0;
#X connect 9 0 5 1;
#X connect 10 0 11 0;
#X connect 11 0 6 1;
#X coords 0 -1 1 1 200 80 2 10 10;
