#N canvas -7 0 958 988 16;
#X obj 29 347 noise~;
#X obj 27 526 *~;
#X obj 80 479 line~;
#X obj 219 520 *~;
#X obj 244 484 line~;
#X msg 244 425 1 5;
#X obj 311 423 del 5;
#X obj 379 520 *~;
#X obj 404 484 line~;
#X obj 471 423 del 5;
#X msg 471 452 0 10;
#X msg 404 425 0.8 5;
#X obj 539 521 *~;
#X obj 564 484 line~;
#X obj 635 419 del 5;
#X msg 564 424 0.6 5;
#X msg 311 451 0 40;
#X obj 712 317 noise~;
#X obj 713 549 *~;
#X obj 858 495 line~;
#X msg 836 436 1 10;
#X obj 897 432 del 10;
#X obj 147 418 del 10;
#X obj 712 350 bp~ 8000 50;
#X msg 80 420 1 10;
#X obj 120 733 output~;
#X obj 455 176 bng 50 250 50 0 empty empty empty 17 7 0 10 -262144
-1 -1;
#X obj 455 257 s playsnare;
#X obj 91 379 r playsnare;
#X obj 246 379 r playsnare;
#X obj 409 383 r playsnare;
#X obj 561 380 r playsnare;
#X obj 832 386 r playsnare;
#X obj 219 341 triangle~ 130;
#X obj 379 341 triangle~ 218;
#X obj 539 341 osc~ 466;
#X msg 632 452 0 40;
#X obj 712 393 hip~ 6000;
#X obj 150 679 rev2~ 100 70 3000 60;
#N canvas 684 261 292 405 keydown 0;
#X obj 25 47 key;
#X obj 25 105 select 1;
#X obj 35 134 bng 15 250 50 0 empty empty empty 17 7 0 10 -262144 -1
-1;
#X obj 129 76 keyup;
#X obj 129 134 select 1;
#X obj 139 163 bng 15 250 50 0 empty empty empty 17 7 0 10 -262144
-1 -1;
#X obj 63 259 == 1;
#X obj 73 317 bng 15 250 50 0 empty empty empty 17 7 0 10 -262144 -1
-1;
#X obj 63 230 spigot;
#X obj 63 288 select 1;
#X msg 129 183 1;
#X msg 25 183 0;
#X msg 71 183 1;
#X obj 25 154 t b f;
#X obj 63 337 outlet;
#X obj 25 76 ==;
#X obj 129 105 ==;
#X obj 149 17 inlet;
#X obj 182 168 loadbang;
#X msg 182 197 1;
#X connect 0 0 15 0;
#X connect 1 0 2 0;
#X connect 1 0 13 0;
#X connect 3 0 16 0;
#X connect 4 0 5 0;
#X connect 4 0 10 0;
#X connect 6 0 9 0;
#X connect 8 0 6 0;
#X connect 9 0 7 0;
#X connect 9 0 14 0;
#X connect 10 0 8 1;
#X connect 11 0 8 1;
#X connect 12 0 8 0;
#X connect 13 0 11 0;
#X connect 13 1 12 0;
#X connect 15 0 1 0;
#X connect 16 0 4 0;
#X connect 17 0 15 1;
#X connect 17 0 16 1;
#X connect 18 0 19 0;
#X connect 19 0 8 1;
#X restore 457 135 pd keydown;
#X obj 598 176 bng 50 250 50 0 empty empty empty 17 7 0 10 -262144
-1 -1;
#N canvas 684 261 292 405 keydown 0;
#X obj 25 47 key;
#X obj 25 105 select 1;
#X obj 35 134 bng 15 250 50 0 empty empty empty 17 7 0 10 -262144 -1
-1;
#X obj 129 76 keyup;
#X obj 129 134 select 1;
#X obj 139 163 bng 15 250 50 0 empty empty empty 17 7 0 10 -262144
-1 -1;
#X obj 63 259 == 1;
#X obj 73 317 bng 15 250 50 0 empty empty empty 17 7 0 10 -262144 -1
-1;
#X obj 63 230 spigot;
#X obj 63 288 select 1;
#X msg 129 183 1;
#X msg 25 183 0;
#X msg 71 183 1;
#X obj 25 154 t b f;
#X obj 63 337 outlet;
#X obj 25 76 ==;
#X obj 129 105 ==;
#X obj 149 17 inlet;
#X obj 182 168 loadbang;
#X msg 182 197 1;
#X connect 0 0 15 0;
#X connect 1 0 2 0;
#X connect 1 0 13 0;
#X connect 3 0 16 0;
#X connect 4 0 5 0;
#X connect 4 0 10 0;
#X connect 6 0 9 0;
#X connect 8 0 6 0;
#X connect 9 0 7 0;
#X connect 9 0 14 0;
#X connect 10 0 8 1;
#X connect 11 0 8 1;
#X connect 12 0 8 0;
#X connect 13 0 11 0;
#X connect 13 1 12 0;
#X connect 15 0 1 0;
#X connect 16 0 4 0;
#X connect 17 0 15 1;
#X connect 17 0 16 1;
#X connect 18 0 19 0;
#X connect 19 0 8 1;
#X restore 600 135 pd keydown;
#X msg 464 90 118;
#X msg 606 94 110;
#X obj 524 45 loadbang;
#X msg 897 461 0 35;
#X msg 147 447 0 90;
#X obj 119 632 *~ 0.3;
#X connect 0 0 1 0;
#X connect 1 0 47 0;
#X connect 2 0 1 1;
#X connect 3 0 47 0;
#X connect 4 0 3 1;
#X connect 5 0 4 0;
#X connect 6 0 16 0;
#X connect 7 0 47 0;
#X connect 8 0 7 1;
#X connect 9 0 10 0;
#X connect 10 0 8 0;
#X connect 11 0 8 0;
#X connect 12 0 47 0;
#X connect 13 0 12 1;
#X connect 14 0 36 0;
#X connect 15 0 13 0;
#X connect 16 0 4 0;
#X connect 17 0 23 0;
#X connect 18 0 47 0;
#X connect 19 0 18 1;
#X connect 20 0 19 0;
#X connect 21 0 45 0;
#X connect 22 0 46 0;
#X connect 23 0 37 0;
#X connect 24 0 2 0;
#X connect 26 0 27 0;
#X connect 28 0 24 0;
#X connect 28 0 22 0;
#X connect 28 0 0 0;
#X connect 29 0 5 0;
#X connect 29 0 6 0;
#X connect 29 0 33 0;
#X connect 30 0 11 0;
#X connect 30 0 9 0;
#X connect 30 0 34 0;
#X connect 31 0 15 0;
#X connect 31 0 14 0;
#X connect 31 0 35 0;
#X connect 32 0 20 0;
#X connect 32 0 21 0;
#X connect 32 0 17 0;
#X connect 33 0 3 0;
#X connect 34 0 7 0;
#X connect 35 0 12 0;
#X connect 36 0 13 0;
#X connect 37 0 18 0;
#X connect 38 0 25 0;
#X connect 39 0 26 0;
#X connect 40 0 27 0;
#X connect 41 0 40 0;
#X connect 42 0 39 0;
#X connect 43 0 41 0;
#X connect 44 0 43 0;
#X connect 44 0 42 0;
#X connect 45 0 19 0;
#X connect 46 0 2 0;
#X connect 47 0 25 0;
#X connect 47 0 38 0;
