#N canvas -8 -8 1920 997 10;
#X obj 306 428 noise~;
#X obj 361 536 line~;
#X obj 1071 606 line~;
#X obj 465 357 square~;
#X obj 550 370 square~;
#X obj 637 370 square~;
#X obj 703 370 square~;
#X obj 635 330 * 4.16;
#X obj 701 330 * 5.43;
#X obj 783 330 * 6.79;
#X obj 385 342 square~;
#X obj 403 137 loadbang;
#X obj 464 321 * 2.35;
#X obj 548 330 * 3.57;
#X obj 305 575 *~;
#X obj 861 711 *~;
#X obj 926 367 square~;
#X obj 1146 575 del 40;
#X obj 428 505 del 5;
#X obj 852 330 * 8.71;
#X obj 924 327 * 10.35;
#X obj 306 481 hip~ 1500;
#X obj 1014 332 * 1.56;
#X obj 1106 329 * 4.37;
#X obj 1182 329 * 7.65;
#X obj 1259 329 6.86;
#X obj 1335 327 * 3.37;
#X obj 1411 328 * 2.47;
#X obj 1482 326 * 5.19;
#X obj 1015 368 noise~;
#X obj 1108 369 noise~;
#X obj 784 546 bp~ 5000 3000;
#X obj 918 546 hip~ 7000;
#X msg 361 505 0.5 5;
#X msg 1071 577 0.7 5;
#X obj 862 762 lop~ 300;
#X obj 1413 368 osc~;
#X obj 1484 366 osc~;
#X msg 404 166 197;
#X obj 854 370 square~;
#X obj 785 370 square~;
#X obj 1261 369 triangle~;
#X obj 1337 367 triangle~;
#X obj 1184 369 noise~;
#X msg 428 534 0 5;
#X obj 403 196 s pitchride;
#X obj 913 193 s playcymbal;
#X obj 1072 540 r playcymbal;
#X obj 370 453 r playcymbal;
#X obj 386 297 r pitchride;
#X obj 464 296 r pitchride;
#X obj 548 298 r pitchride;
#X obj 627 298 r pitchride;
#X obj 701 298 r pitchride;
#X obj 783 298 r pitchride;
#X obj 856 298 r pitchride;
#X obj 931 297 r pitchride;
#X obj 1013 296 r pitchride;
#X obj 1106 297 r pitchride;
#X obj 1182 297 r pitchride;
#X obj 1259 297 r pitchride;
#X obj 1335 295 r pitchride;
#X obj 1411 296 r pitchride;
#X obj 1482 294 r pitchride;
#X obj 913 154 inlet;
#X obj 860 834 outlet~;
#X obj 861 811 *~ 0.7;
#X text 175 474 Attack Part of Ride;
#X msg 1146 604 0 1500;
#X text 914 760 low pass filter used to tone down cymbal sound;
#X text 1130 499 Experimental Ride Cymbal Sound Synthesis;
#X connect 0 0 21 0;
#X connect 1 0 14 1;
#X connect 2 0 15 1;
#X connect 3 0 31 0;
#X connect 3 0 32 0;
#X connect 4 0 31 0;
#X connect 4 0 32 0;
#X connect 5 0 31 0;
#X connect 5 0 32 0;
#X connect 6 0 31 0;
#X connect 6 0 32 0;
#X connect 7 0 5 0;
#X connect 8 0 6 0;
#X connect 9 0 40 0;
#X connect 10 0 31 0;
#X connect 11 0 38 0;
#X connect 12 0 3 0;
#X connect 13 0 4 0;
#X connect 14 0 66 0;
#X connect 15 0 35 0;
#X connect 16 0 31 0;
#X connect 16 0 32 0;
#X connect 17 0 68 0;
#X connect 18 0 44 0;
#X connect 19 0 39 0;
#X connect 20 0 16 0;
#X connect 21 0 14 0;
#X connect 22 0 29 0;
#X connect 23 0 30 0;
#X connect 24 0 43 0;
#X connect 25 0 41 0;
#X connect 26 0 42 0;
#X connect 27 0 36 0;
#X connect 28 0 37 0;
#X connect 29 0 31 0;
#X connect 29 0 32 0;
#X connect 30 0 31 0;
#X connect 30 0 32 0;
#X connect 31 0 15 0;
#X connect 32 0 15 0;
#X connect 33 0 1 0;
#X connect 34 0 2 0;
#X connect 35 0 66 0;
#X connect 36 0 31 0;
#X connect 36 0 32 0;
#X connect 37 0 31 0;
#X connect 37 0 32 0;
#X connect 38 0 45 0;
#X connect 39 0 31 0;
#X connect 39 0 32 0;
#X connect 40 0 31 0;
#X connect 40 0 32 0;
#X connect 41 0 31 0;
#X connect 41 0 32 0;
#X connect 42 0 31 0;
#X connect 42 0 32 0;
#X connect 43 0 31 0;
#X connect 43 0 32 0;
#X connect 44 0 1 0;
#X connect 47 0 34 0;
#X connect 47 0 17 0;
#X connect 48 0 33 0;
#X connect 48 0 18 0;
#X connect 49 0 10 0;
#X connect 50 0 12 0;
#X connect 51 0 13 0;
#X connect 52 0 7 0;
#X connect 53 0 8 0;
#X connect 54 0 9 0;
#X connect 55 0 19 0;
#X connect 56 0 20 0;
#X connect 57 0 22 0;
#X connect 58 0 23 0;
#X connect 59 0 24 0;
#X connect 60 0 25 0;
#X connect 61 0 26 0;
#X connect 62 0 27 0;
#X connect 63 0 28 0;
#X connect 64 0 46 0;
#X connect 66 0 65 0;
#X connect 68 0 2 0;
