#N canvas 0 50 358 266 16;
#X obj 130 51 inlet;
#X obj 57 88 phasor~;
#X obj 57 117 *~ 2;
#X obj 57 146 -~ 1;
#X obj 57 175 outlet~;
#X obj 26 22 loadbang;
#X obj 26 51 f \$1;
#X connect 0 0 1 0;
#X connect 1 0 2 0;
#X connect 2 0 3 0;
#X connect 3 0 4 0;
#X connect 5 0 6 0;
#X connect 6 0 1 0;
