#N canvas 953 0 958 988 16;
#X obj 23 102 noise~;
#X obj 21 281 *~;
#X obj 74 234 line~;
#X obj 217 455 *~;
#X obj 242 413 line~;
#X msg 242 354 1 5;
#X obj 309 352 del 5;
#X obj 377 449 *~;
#X obj 402 413 line~;
#X obj 469 352 del 5;
#X msg 469 381 0 10;
#X msg 402 354 0.8 5;
#X obj 537 450 *~;
#X obj 562 413 line~;
#X obj 632 355 del 5;
#X msg 562 353 0.6 5;
#X msg 309 380 0 40;
#X obj 668 583 noise~;
#X obj 669 815 *~;
#X obj 814 761 line~;
#X msg 792 702 1 10;
#X obj 853 698 del 10;
#X obj 141 173 del 10;
#X obj 668 616 bp~ 8000 50;
#X msg 74 175 1 10;
#X obj 456 152 s playsnare;
#X obj 85 134 r playsnare;
#X obj 244 308 r playsnare;
#X obj 407 312 r playsnare;
#X obj 559 309 r playsnare;
#X obj 788 652 r playsnare;
#X obj 217 270 triangle~ 130;
#X obj 377 270 triangle~ 218;
#X obj 537 270 osc~ 466;
#X msg 629 388 0 40;
#X obj 668 659 hip~ 6000;
#X msg 853 727 0 35;
#X msg 141 202 0 90;
#X obj 21 836 *~ 0.3;
#X obj 21 865 outlet~;
#X obj 456 112 inlet;
#X text 351 229 Snare Tone;
#X text 36 51 Attack of Snare;
#X text 692 533 "Chrispy" Sustain;
#X connect 0 0 1 0;
#X connect 1 0 38 0;
#X connect 2 0 1 1;
#X connect 3 0 38 0;
#X connect 4 0 3 1;
#X connect 5 0 4 0;
#X connect 6 0 16 0;
#X connect 7 0 38 0;
#X connect 8 0 7 1;
#X connect 9 0 10 0;
#X connect 10 0 8 0;
#X connect 11 0 8 0;
#X connect 12 0 38 0;
#X connect 13 0 12 1;
#X connect 14 0 34 0;
#X connect 15 0 13 0;
#X connect 16 0 4 0;
#X connect 17 0 23 0;
#X connect 18 0 38 0;
#X connect 19 0 18 1;
#X connect 20 0 19 0;
#X connect 21 0 36 0;
#X connect 22 0 37 0;
#X connect 23 0 35 0;
#X connect 24 0 2 0;
#X connect 26 0 24 0;
#X connect 26 0 22 0;
#X connect 26 0 0 0;
#X connect 27 0 5 0;
#X connect 27 0 6 0;
#X connect 27 0 31 0;
#X connect 28 0 11 0;
#X connect 28 0 9 0;
#X connect 28 0 32 0;
#X connect 29 0 15 0;
#X connect 29 0 14 0;
#X connect 29 0 33 0;
#X connect 30 0 20 0;
#X connect 30 0 21 0;
#X connect 30 0 17 0;
#X connect 31 0 3 0;
#X connect 32 0 7 0;
#X connect 33 0 12 0;
#X connect 34 0 13 0;
#X connect 35 0 18 0;
#X connect 36 0 19 0;
#X connect 37 0 2 0;
#X connect 38 0 39 0;
#X connect 40 0 25 0;
