#N canvas 135 257 399 380 16;
#X obj 127 15 inlet;
#X obj 79 125 phasor~;
#X obj 186 127 phasor~;
#X obj 146 76 * -1;
#X obj 284 34 loadbang;
#X msg 261 77 0;
#X msg 313 79 0.5;
#X obj 236 41 bng 15 250 50 0 empty empty empty 17 7 0 10 -262144 -1
-1;
#X obj 132 190 +~;
#X obj 132 318 outlet~;
#X obj 132 219 *~ 2;
#X obj 132 248 -~ 2;
#X obj 200 10 inlet;
#X obj 29 15 loadbang;
#X obj 29 44 f \$1;
#X connect 0 0 1 0;
#X connect 0 0 3 0;
#X connect 1 0 8 0;
#X connect 2 0 8 1;
#X connect 3 0 2 0;
#X connect 4 0 5 0;
#X connect 4 0 6 0;
#X connect 5 0 1 1;
#X connect 6 0 2 1;
#X connect 7 0 5 0;
#X connect 7 0 6 0;
#X connect 8 0 10 0;
#X connect 10 0 11 0;
#X connect 11 0 9 0;
#X connect 12 0 7 0;
#X connect 13 0 14 0;
#X connect 14 0 3 0;
#X connect 14 0 1 0;
