#N canvas 110 357 458 466 16;
#X obj 92 52 inlet;
#X obj 123 385 outlet~;
#X obj 54 147 phasor~;
#X obj 169 149 phasor~;
#X obj 113 103 * -1;
#X obj 246 52 loadbang;
#X msg 246 81 0;
#X obj 54 176 *~ 2;
#X obj 54 205 -~ 1;
#X obj 54 234 clip~ 0 1;
#X obj 169 178 *~ 2;
#X obj 169 207 -~ 1;
#X obj 169 236 clip~ 0 1;
#X obj 125 293 *~ 2;
#X obj 125 322 -~ 1;
#X obj 169 50 inlet;
#X obj 29 15 loadbang;
#X obj 29 44 f \$1;
#X connect 0 0 2 0;
#X connect 0 0 4 0;
#X connect 2 0 7 0;
#X connect 3 0 10 0;
#X connect 4 0 3 0;
#X connect 5 0 6 0;
#X connect 6 0 3 1;
#X connect 6 0 2 1;
#X connect 7 0 8 0;
#X connect 8 0 9 0;
#X connect 9 0 13 0;
#X connect 10 0 11 0;
#X connect 11 0 12 0;
#X connect 12 0 13 0;
#X connect 13 0 14 0;
#X connect 14 0 1 0;
#X connect 15 0 6 0;
#X connect 16 0 17 0;
#X connect 17 0 4 0;
#X connect 17 0 2 0;
